<svg aria-hidden="true" style="position: absolute; width: 0; height: 0; overflow: hidden;" version="1.1" xmlns="http://www.w3.org/2000/svg" xmlns:xlink="http://www.w3.org/1999/xlink">
<defs>
<symbol id="map-pin" width="16" height="16" viewBox="0 0 16 16" fill="none">
<path d="M14 6.66667C14 11.3333 8 15.3333 8 15.3333C8 15.3333 2 11.3333 2 6.66667C2 5.07537 2.63214 3.54925 3.75736 2.42403C4.88258 1.29881 6.4087 0.666672 8 0.666672C9.5913 0.666672 11.1174 1.29881 12.2426 2.42403C13.3679 3.54925 14 5.07537 14 6.66667Z" stroke="#101828" stroke-width="1.3" stroke-linecap="round" stroke-linejoin="round"/>
<path d="M8 8.66667C9.10457 8.66667 10 7.77124 10 6.66667C10 5.5621 9.10457 4.66667 8 4.66667C6.89543 4.66667 6 5.5621 6 6.66667C6 7.77124 6.89543 8.66667 8 8.66667Z" stroke="#101828" stroke-width="1.3" stroke-linecap="round" stroke-linejoin="round"/>
</symbol>
<symbol id="grey-map-pin" width="18" height="20" viewBox="0 0 18 20" fill="none">
<g clip-path="url(#clip0_46_623)">
<path d="M16.5 8.33334C16.5 14.1667 9 19.1667 9 19.1667C9 19.1667 1.5 14.1667 1.5 8.33334C1.5 6.34422 2.29018 4.43657 3.6967 3.03004C5.10322 1.62352 7.01088 0.833344 9 0.833344C10.9891 0.833344 12.8968 1.62352 14.3033 3.03004C15.7098 4.43657 16.5 6.34422 16.5 8.33334Z" stroke="#101828" stroke-opacity="0.6" stroke-width="1.5" stroke-linecap="round" stroke-linejoin="round"/>
<path d="M9 10.8333C10.3807 10.8333 11.5 9.71406 11.5 8.33334C11.5 6.95263 10.3807 5.83334 9 5.83334C7.61929 5.83334 6.5 6.95263 6.5 8.33334C6.5 9.71406 7.61929 10.8333 9 10.8333Z" stroke="#101828" stroke-opacity="0.6" stroke-width="1.5" stroke-linecap="round" stroke-linejoin="round"/>
</g>
<defs>
<clipPath>
<rect width="18" height="20" fill="white"/>
</clipPath>
</defs>
</symbol>

<symbol id="star" width="16" height="16" viewBox="0 0 16 16" fill="none">
<g clip-path="url(#clip0_1_2567)">
<path d="M6.20021 4.69703L8 1.28579L9.79979 4.69703C9.95896 4.9987 10.2491 5.20947 10.5851 5.26762L14.3856 5.92519L11.6975 8.69103C11.4598 8.93563 11.3489 9.27666 11.3975 9.61427L11.9465 13.4319L8.48537 11.7301C8.17929 11.5795 7.82071 11.5795 7.51463 11.7301L4.05348 13.4319L4.6025 9.61427C4.65105 9.27666 4.54024 8.93563 4.30252 8.69103L1.6144 5.92519L5.41486 5.26762C5.75095 5.20947 6.04104 4.9987 6.20021 4.69703Z" fill="#FFC531" stroke="#FFC531" stroke-width="1.2"/>
</g>
<defs>
<clipPath>
<rect width="16" height="16" fill="white"/>
</clipPath>
</defs>
</symbol>
<symbol id="adults" width="20" height="20" viewBox="0 0 20 20" fill="none">
<path d="M5.66666 15.0834H2.91666C2.74999 15.0834 2.66666 15 2.58333 14.9167C2.49999 14.8334 2.41666 14.6667 2.49999 14.5C2.99999 13.0834 4.24999 12.25 5.66666 12.25C7.41666 12.25 8.83333 10.75 8.83333 9.00003C8.83333 7.25003 7.41666 5.58336 5.66666 5.58336C3.91666 5.58336 2.49999 7.08336 2.49999 8.91669C2.49999 9.75003 2.83333 10.5834 3.33333 11.1667C2.24999 11.75 1.41666 12.6667 0.91666 13.9167C0.749994 14.5 0.833327 15.25 1.24999 15.8334C1.66666 16.4167 2.24999 16.75 2.91666 16.75H5.66666C6.16666 16.75 6.49999 16.4167 6.49999 15.9167C6.49999 15.4167 6.16666 15.0834 5.66666 15.0834ZM4.16666 8.91669C4.16666 8.00003 4.83333 7.33336 5.66666 7.33336C6.49999 7.33336 7.16666 8.08336 7.16666 8.91669C7.16666 9.83336 6.49999 10.5 5.66666 10.5C4.83333 10.5 4.16666 9.75003 4.16666 8.91669Z" fill="#101828"/>
<path d="M19.0833 13.4167C18.5 11.8334 17.3333 10.6667 16 10C16.75 9.33336 17.1666 8.33336 17.1666 7.16669C17.1666 5.00002 15.5 3.25002 13.5 3.25002C11.5 3.25002 9.83331 5.00002 9.83331 7.16669C9.83331 8.25002 10.25 9.25002 11 10C9.66664 10.6667 8.49998 11.8334 7.91664 13.4167C7.49998 14.1667 7.66664 15 8.08331 15.6667C8.49998 16.3334 9.24998 16.6667 9.99998 16.6667H16.9166C17.6666 16.6667 18.4166 16.25 18.8333 15.6667C19.3333 15 19.4166 14.1667 19.0833 13.4167ZM11.4166 7.25002C11.4166 6.00002 12.3333 5.00002 13.4166 5.00002C14.5 5.00002 15.4166 6.00002 15.4166 7.25002C15.4166 8.50002 14.5 9.50002 13.4166 9.50002C12.3333 9.50002 11.4166 8.41669 11.4166 7.25002ZM17.4166 14.75C17.3333 14.8334 17.1666 15.0834 16.9166 15.0834H9.99998C9.66664 15.0834 9.49998 14.8334 9.49998 14.75C9.41664 14.6667 9.24998 14.3334 9.41665 14C10.0833 12.25 11.75 11.0834 13.5 11.0834C15.25 11.0834 16.9166 12.25 17.5833 14C17.6666 14.3334 17.5 14.6667 17.4166 14.75Z" fill="#101828"/>
</symbol>
<symbol id="automatic"  viewBox="0 0 20 20" fill="none">
<path d="M14.1667 9.16667H15.4167C15.7482 9.16667 16.0661 9.03497 16.3006 8.80055C16.535 8.56613 16.6667 8.24819 16.6667 7.91667C16.6667 7.58515 16.535 7.2672 16.3006 7.03278C16.0661 6.79836 15.7482 6.66667 15.4167 6.66667H14.1667V10.8333M14.1667 14.1667V17.5H15C15.442 17.5 15.866 17.3244 16.1785 17.0118C16.4911 16.6993 16.6667 16.2754 16.6667 15.8333C16.6667 15.3913 16.4911 14.9674 16.1785 14.6548C15.866 14.3423 15.442 14.1667 15 14.1667H14.1667ZM2.5 4.16667C2.5 4.60869 2.67559 5.03262 2.98816 5.34518C3.30072 5.65774 3.72464 5.83333 4.16667 5.83333C4.60869 5.83333 5.03262 5.65774 5.34518 5.34518C5.65774 5.03262 5.83333 4.60869 5.83333 4.16667C5.83333 3.72464 5.65774 3.30072 5.34518 2.98816C5.03262 2.67559 4.60869 2.5 4.16667 2.5C3.72464 2.5 3.30072 2.67559 2.98816 2.98816C2.67559 3.30072 2.5 3.72464 2.5 4.16667Z" stroke="#101828" stroke-width="1.5" stroke-linecap="round" stroke-linejoin="round"/>
<path d="M4.16675 5.83334V8.33334C4.16675 8.55435 4.25455 8.76631 4.41083 8.92259C4.56711 9.07887 4.77907 9.16667 5.00008 9.16667H7.50008M7.50008 9.16667V15C7.50008 15.221 7.58788 15.433 7.74416 15.5893C7.90044 15.7455 8.1124 15.8333 8.33341 15.8333H10.8334M7.50008 9.16667H10.8334" stroke="#101828" stroke-width="1.5" stroke-linecap="round" stroke-linejoin="round"/>
</symbol>

<symbol id="patrol" width="20" height="20" viewBox="0 0 20 20" fill="none">
<path d="M16.4749 6.025L16.4833 6.01667L13.3833 2.91667L12.4999 3.8L14.2583 5.55833C13.4749 5.85833 12.9166 6.60833 12.9166 7.5C12.9166 7.77359 12.9705 8.0445 13.0752 8.29726C13.1799 8.55002 13.3333 8.77968 13.5268 8.97314C13.9175 9.36384 14.4474 9.58333 14.9999 9.58333C15.2999 9.58333 15.5749 9.51667 15.8333 9.40833V15.4167C15.8333 15.6377 15.7455 15.8496 15.5892 16.0059C15.4329 16.1622 15.2209 16.25 14.9999 16.25C14.7789 16.25 14.5669 16.1622 14.4107 16.0059C14.2544 15.8496 14.1666 15.6377 14.1666 15.4167V11.6667C14.1666 11.2246 13.991 10.8007 13.6784 10.4882C13.3659 10.1756 12.9419 10 12.4999 10H11.6666V4.16667C11.6666 3.72464 11.491 3.30072 11.1784 2.98816C10.8659 2.67559 10.4419 2.5 9.99992 2.5H4.99992C4.55789 2.5 4.13397 2.67559 3.82141 2.98816C3.50885 3.30072 3.33325 3.72464 3.33325 4.16667V17.5H11.6666V11.25H12.9166V15.4167C12.9166 15.9692 13.1361 16.4991 13.5268 16.8898C13.9175 17.2805 14.4474 17.5 14.9999 17.5C15.2735 17.5 15.5444 17.4461 15.7972 17.3414C16.0499 17.2367 16.2796 17.0833 16.4731 16.8898C16.6665 16.6964 16.82 16.4667 16.9247 16.2139C17.0294 15.9612 17.0833 15.6903 17.0833 15.4167V7.5C17.0833 6.925 16.8499 6.4 16.4749 6.025ZM9.99992 11.25V15.8333H4.99992V10H9.99992V11.25ZM9.99992 8.33333H4.99992V4.16667H9.99992V8.33333ZM14.9999 8.33333C14.7789 8.33333 14.5669 8.24554 14.4107 8.08926C14.2544 7.93297 14.1666 7.72101 14.1666 7.5C14.1666 7.27899 14.2544 7.06702 14.4107 6.91074C14.5669 6.75446 14.7789 6.66667 14.9999 6.66667C15.2209 6.66667 15.4329 6.75446 15.5892 6.91074C15.7455 7.06702 15.8333 7.27899 15.8333 7.5C15.8333 7.72101 15.7455 7.93297 15.5892 8.08926C15.4329 8.24554 15.2209 8.33333 14.9999 8.33333Z" fill="#101828"/>
</symbol>

<symbol id="kitchen"  viewBox="0 0 20 20" fill="none">
<path d="M15.8334 12.5V2.5C11.8201 6.32833 11.6476 9.4325 11.6667 12.5H15.8334ZM15.8334 12.5V17.5H15.0001V15M6.66675 3.33333V17.5M4.16675 3.33333V5.83333C4.16675 6.49637 4.43014 7.13226 4.89898 7.6011C5.36782 8.06994 6.00371 8.33333 6.66675 8.33333C7.32979 8.33333 7.96567 8.06994 8.43452 7.6011C8.90336 7.13226 9.16675 6.49637 9.16675 5.83333V3.33333" stroke="#101828" stroke-width="1.5" stroke-linecap="round" stroke-linejoin="round"/>
</symbol>

<symbol id="debs" width="20" height="20" viewBox="0 0 20 20" fill="none">
<path d="M1.875 16.25V11.875C1.87696 11.2126 2.14098 10.5778 2.6094 10.1094C3.07781 9.64098 3.71256 9.37696 4.375 9.375H15.625C16.2874 9.37696 16.9222 9.64098 17.3906 10.1094C17.859 10.5778 18.123 11.2126 18.125 11.875V16.25M15 9.375H3.75V5.3125C3.75124 4.89848 3.91625 4.50177 4.20901 4.20901C4.50177 3.91625 4.89848 3.75124 5.3125 3.75H14.6875C15.1015 3.75124 15.4982 3.91625 15.791 4.20901C16.0837 4.50177 16.2488 4.89848 16.25 5.3125V9.375H15Z" stroke="#101828" stroke-width="1.4" stroke-linecap="round" stroke-linejoin="round"/>
<path d="M1.875 16.25V15.9375C1.87572 15.6891 1.97473 15.451 2.15038 15.2754C2.32604 15.0997 2.56408 15.0007 2.8125 15H17.1875C17.4359 15.0007 17.674 15.0997 17.8496 15.2754C18.0253 15.451 18.1243 15.6891 18.125 15.9375V16.25M4.375 9.375V8.75C4.37593 8.41876 4.50792 8.10136 4.74214 7.86714C4.97636 7.63292 5.29376 7.50093 5.625 7.5H8.75C9.08124 7.50093 9.39864 7.63292 9.63286 7.86714C9.86708 8.10136 9.99907 8.41876 10 8.75M10 8.75V9.375M10 8.75C10.0009 8.41876 10.1329 8.10136 10.3671 7.86714C10.6014 7.63292 10.9188 7.50093 11.25 7.5H14.375C14.7062 7.50093 15.0236 7.63292 15.2579 7.86714C15.4921 8.10136 15.6241 8.41876 15.625 8.75V9.375" stroke="#101828" stroke-width="1.4" stroke-linecap="round" stroke-linejoin="round"/>
</symbol>

<symbol id="ac" width="20" height="16" viewBox="0 0 20 16" fill="none">
<mask fill="white">
<path d="M9.69 0C8.7518 0.000205607 7.84263 0.320331 7.11706 0.905952C6.39148 1.49157 5.89429 2.30654 5.71 3.21231L5.6375 3.57169C5.61823 3.65208 5.61559 3.73546 5.62974 3.81688C5.64389 3.89829 5.67454 3.97606 5.71986 4.04556C5.76519 4.11507 5.82426 4.17487 5.89355 4.22142C5.96285 4.26797 6.04095 4.30031 6.12321 4.31651C6.20547 4.3327 6.29019 4.33243 6.37234 4.31571C6.45449 4.29898 6.53238 4.26614 6.60137 4.21915C6.67035 4.17216 6.72903 4.11198 6.77389 4.04219C6.81875 3.97239 6.84889 3.89442 6.8625 3.81292L6.93625 3.45477C7.0748 2.7832 7.46155 2.18615 8.02159 1.77926C8.58162 1.37237 9.27509 1.1846 9.96769 1.25232C10.6603 1.32004 11.3027 1.63843 11.7705 2.14581C12.2384 2.6532 12.4983 3.31348 12.5 3.99877C12.5 4.73333 12.2037 5.43782 11.6763 5.95735C11.1489 6.47687 10.4335 6.7689 9.6875 6.76923H0.625C0.45924 6.76923 0.300269 6.83407 0.183058 6.94947C0.0658481 7.06488 0 7.22141 0 7.38462C0 7.54783 0.0658481 7.70435 0.183058 7.81976C0.300269 7.93517 0.45924 8 0.625 8H9.6875C10.7475 7.97443 11.7554 7.54194 12.496 6.79485C13.2367 6.04775 13.6514 5.04521 13.6517 4.0012C13.652 2.95719 13.2379 1.9544 12.4978 1.20686C11.7576 0.459308 10.75 0.0262118 9.69 0ZM16.875 5.53846C16.0462 5.53846 15.2513 5.86264 14.6653 6.43967C14.0792 7.01671 13.75 7.79933 13.75 8.61539C13.75 8.77859 13.8158 8.93512 13.9331 9.05053C14.0503 9.16594 14.2092 9.23077 14.375 9.23077C14.5408 9.23077 14.6997 9.16594 14.8169 9.05053C14.9342 8.93512 15 8.77859 15 8.61539C15 8.25025 15.11 7.89332 15.316 7.58972C15.522 7.28612 15.8149 7.04949 16.1575 6.90976C16.5001 6.77003 16.8771 6.73347 17.2408 6.8047C17.6045 6.87594 17.9386 7.05177 18.2008 7.30996C18.463 7.56815 18.6416 7.8971 18.714 8.25522C18.7863 8.61334 18.7492 8.98454 18.6073 9.32188C18.4654 9.65922 18.225 9.94755 17.9167 10.1504C17.6084 10.3533 17.2458 10.4615 16.875 10.4615H0.625C0.45924 10.4615 0.300269 10.5264 0.183058 10.6418C0.0658481 10.7572 0 10.9137 0 11.0769C0 11.2401 0.0658481 11.3967 0.183058 11.5121C0.300269 11.6275 0.45924 11.6923 0.625 11.6923H12.8125C13.2269 11.6931 13.624 11.856 13.9164 12.1451C14.2089 12.4342 14.3727 12.8258 14.3719 13.2338C14.371 13.6419 14.2056 14.0329 13.912 14.3208C13.6184 14.6087 13.2207 14.77 12.8062 14.7692C12.433 14.7695 12.0716 14.6396 11.7863 14.4026C11.501 14.1656 11.3101 13.8368 11.2475 13.4745L11.2413 13.4375C11.23 13.3559 11.2023 13.2773 11.1596 13.2065C11.117 13.1356 11.0603 13.0739 10.993 13.025C10.9257 12.9761 10.849 12.941 10.7677 12.9218C10.6863 12.9025 10.6019 12.8996 10.5194 12.9131C10.4368 12.9266 10.3579 12.9563 10.2872 13.0004C10.2166 13.0445 10.1556 13.1022 10.108 13.1699C10.0604 13.2376 10.0271 13.3141 10.01 13.3947C9.99298 13.4754 9.99254 13.5586 10.0087 13.6394L10.015 13.6763C10.1261 14.326 10.4675 14.916 10.9785 15.3414C11.4895 15.7668 12.1371 16.0001 12.8062 16C13.5528 16.0003 14.2691 15.7089 14.7976 15.1896C15.3261 14.6704 15.6237 13.9659 15.625 13.2308C15.625 12.6609 15.45 12.1317 15.1513 11.6923H16.875C17.7038 11.6923 18.4987 11.3681 19.0847 10.7911C19.6708 10.2141 20 9.43144 20 8.61539C20 7.79933 19.6708 7.01671 19.0847 6.43967C18.4987 5.86264 17.7038 5.53846 16.875 5.53846Z"/>
</mask>
<path d="M9.69 0C8.7518 0.000205607 7.84263 0.320331 7.11706 0.905952C6.39148 1.49157 5.89429 2.30654 5.71 3.21231L5.6375 3.57169C5.61823 3.65208 5.61559 3.73546 5.62974 3.81688C5.64389 3.89829 5.67454 3.97606 5.71986 4.04556C5.76519 4.11507 5.82426 4.17487 5.89355 4.22142C5.96285 4.26797 6.04095 4.30031 6.12321 4.31651C6.20547 4.3327 6.29019 4.33243 6.37234 4.31571C6.45449 4.29898 6.53238 4.26614 6.60137 4.21915C6.67035 4.17216 6.72903 4.11198 6.77389 4.04219C6.81875 3.97239 6.84889 3.89442 6.8625 3.81292L6.93625 3.45477C7.0748 2.7832 7.46155 2.18615 8.02159 1.77926C8.58162 1.37237 9.27509 1.1846 9.96769 1.25232C10.6603 1.32004 11.3027 1.63843 11.7705 2.14581C12.2384 2.6532 12.4983 3.31348 12.5 3.99877C12.5 4.73333 12.2037 5.43782 11.6763 5.95735C11.1489 6.47687 10.4335 6.7689 9.6875 6.76923H0.625C0.45924 6.76923 0.300269 6.83407 0.183058 6.94947C0.0658481 7.06488 0 7.22141 0 7.38462C0 7.54783 0.0658481 7.70435 0.183058 7.81976C0.300269 7.93517 0.45924 8 0.625 8H9.6875C10.7475 7.97443 11.7554 7.54194 12.496 6.79485C13.2367 6.04775 13.6514 5.04521 13.6517 4.0012C13.652 2.95719 13.2379 1.9544 12.4978 1.20686C11.7576 0.459308 10.75 0.0262118 9.69 0ZM16.875 5.53846C16.0462 5.53846 15.2513 5.86264 14.6653 6.43967C14.0792 7.01671 13.75 7.79933 13.75 8.61539C13.75 8.77859 13.8158 8.93512 13.9331 9.05053C14.0503 9.16594 14.2092 9.23077 14.375 9.23077C14.5408 9.23077 14.6997 9.16594 14.8169 9.05053C14.9342 8.93512 15 8.77859 15 8.61539C15 8.25025 15.11 7.89332 15.316 7.58972C15.522 7.28612 15.8149 7.04949 16.1575 6.90976C16.5001 6.77003 16.8771 6.73347 17.2408 6.8047C17.6045 6.87594 17.9386 7.05177 18.2008 7.30996C18.463 7.56815 18.6416 7.8971 18.714 8.25522C18.7863 8.61334 18.7492 8.98454 18.6073 9.32188C18.4654 9.65922 18.225 9.94755 17.9167 10.1504C17.6084 10.3533 17.2458 10.4615 16.875 10.4615H0.625C0.45924 10.4615 0.300269 10.5264 0.183058 10.6418C0.0658481 10.7572 0 10.9137 0 11.0769C0 11.2401 0.0658481 11.3967 0.183058 11.5121C0.300269 11.6275 0.45924 11.6923 0.625 11.6923H12.8125C13.2269 11.6931 13.624 11.856 13.9164 12.1451C14.2089 12.4342 14.3727 12.8258 14.3719 13.2338C14.371 13.6419 14.2056 14.0329 13.912 14.3208C13.6184 14.6087 13.2207 14.77 12.8062 14.7692C12.433 14.7695 12.0716 14.6396 11.7863 14.4026C11.501 14.1656 11.3101 13.8368 11.2475 13.4745L11.2413 13.4375C11.23 13.3559 11.2023 13.2773 11.1596 13.2065C11.117 13.1356 11.0603 13.0739 10.993 13.025C10.9257 12.9761 10.849 12.941 10.7677 12.9218C10.6863 12.9025 10.6019 12.8996 10.5194 12.9131C10.4368 12.9266 10.3579 12.9563 10.2872 13.0004C10.2166 13.0445 10.1556 13.1022 10.108 13.1699C10.0604 13.2376 10.0271 13.3141 10.01 13.3947C9.99298 13.4754 9.99254 13.5586 10.0087 13.6394L10.015 13.6763C10.1261 14.326 10.4675 14.916 10.9785 15.3414C11.4895 15.7668 12.1371 16.0001 12.8062 16C13.5528 16.0003 14.2691 15.7089 14.7976 15.1896C15.3261 14.6704 15.6237 13.9659 15.625 13.2308C15.625 12.6609 15.45 12.1317 15.1513 11.6923H16.875C17.7038 11.6923 18.4987 11.3681 19.0847 10.7911C19.6708 10.2141 20 9.43144 20 8.61539C20 7.79933 19.6708 7.01671 19.0847 6.43967C18.4987 5.86264 17.7038 5.53846 16.875 5.53846Z" fill="#101828"/>
<path d="M9.69 0L9.8136 -4.99847L9.75126 -5.00001L9.6889 -5L9.69 0ZM5.71 3.21231L0.810378 2.21542L0.808736 2.22356L5.71 3.21231ZM5.6375 3.57169L10.4997 4.73738L10.5208 4.64926L10.5388 4.56044L5.6375 3.57169ZM6.8625 3.81292L1.96525 2.80449L1.94629 2.89657L1.9308 2.98929L6.8625 3.81292ZM6.93625 3.45477L2.03938 2.4445L2.039 2.44634L6.93625 3.45477ZM12.5 3.99877L17.5 3.99877L17.5 3.98632L12.5 3.99877ZM9.6875 6.76923V11.7692L9.68969 11.7692L9.6875 6.76923ZM0 7.38462H-5H0ZM9.6875 8V13H9.7478L9.80808 12.9985L9.6875 8ZM15 8.61539H20H15ZM0 11.0769H-5H0ZM12.8125 11.6923L12.8223 6.69231H12.8125V11.6923ZM12.8062 14.7692L12.8161 9.76922L12.8027 9.76923L12.8062 14.7692ZM11.2475 13.4745L6.31763 14.309L6.31906 14.3174L6.32051 14.3258L11.2475 13.4745ZM11.2413 13.4375L6.28794 14.1192L6.29848 14.1958L6.31138 14.272L11.2413 13.4375ZM10.0087 13.6394L14.9386 12.8049L14.926 12.7303L14.9111 12.6562L10.0087 13.6394ZM10.015 13.6763L5.08512 14.5108L5.08658 14.5193L10.015 13.6763ZM12.8062 16L12.8084 11L12.8053 11L12.8062 16ZM15.625 13.2308L20.625 13.2398V13.2308H15.625ZM15.1513 11.6923V6.69231H5.70532L11.0165 14.5037L15.1513 11.6923ZM9.6889 -5C7.61603 -4.99955 5.59727 -4.29281 3.97674 -2.98486L10.2574 4.79676C10.088 4.93347 9.88758 4.99996 9.6911 5L9.6889 -5ZM3.97674 -2.98486C2.35462 -1.67562 1.22882 0.158856 0.810385 2.21542L10.6096 4.20919C10.5598 4.45423 10.4284 4.65877 10.2574 4.79676L3.97674 -2.98486ZM0.808736 2.22356L0.736237 2.58295L10.5388 4.56044L10.6113 4.20105L0.808736 2.22356ZM0.775281 2.40601C0.59723 3.14868 0.572719 3.9201 0.703591 4.67308L10.5559 2.96068C10.6585 3.55083 10.6392 4.15548 10.4997 4.73738L0.775281 2.40601ZM0.703591 4.67308C0.834446 5.42595 1.11728 6.14125 1.53171 6.77675L9.90801 1.31438C10.2318 1.81088 10.4533 2.37063 10.5559 2.96068L0.703591 4.67308ZM1.53171 6.77675C1.94601 7.41206 2.48245 7.95341 3.10551 8.37194L8.68159 0.0709C9.16606 0.396336 9.58436 0.81807 9.90801 1.31438L1.53171 6.77675ZM3.10551 8.37194C3.7284 8.79036 4.42633 9.07838 5.15715 9.22229L7.08927 -0.589279C7.65557 -0.477761 8.19729 -0.254418 8.68159 0.0709L3.10551 8.37194ZM5.15715 9.22229C5.88787 9.36619 6.64 9.36379 7.36988 9.21519L5.37481 -0.583775C5.94039 -0.698927 6.52306 -0.700779 7.08927 -0.589279L5.15715 9.22229ZM7.36988 9.21519C8.09984 9.06657 8.79598 8.77403 9.41622 8.35153L3.78651 0.0867706C4.26878 -0.241739 4.80915 -0.468606 5.37481 -0.583775L7.36988 9.21519ZM9.41622 8.35153C10.0367 7.92891 10.5696 7.38399 10.9799 6.74587L2.56793 1.3385C2.8884 0.839959 3.30405 0.415409 3.78651 0.0867706L9.41622 8.35153ZM10.9799 6.74587C11.3902 6.10753 11.6683 5.39029 11.7942 4.63655L1.9308 2.98929C2.02946 2.39856 2.24732 1.83726 2.56793 1.3385L10.9799 6.74587ZM11.7598 4.82135L11.8335 4.4632L2.039 2.44634L1.96525 2.80449L11.7598 4.82135ZM11.8331 4.46504C11.7173 5.0265 11.3978 5.50664 10.9605 5.82436L5.08268 -2.26584C3.5253 -1.13435 2.43232 0.539891 2.03938 2.4445L11.8331 4.46504ZM10.9605 5.82436C10.5253 6.14056 9.99872 6.2792 9.48113 6.22859L10.4542 -3.72395C8.55147 -3.90999 6.63797 -3.39581 5.08268 -2.26584L10.9605 5.82436ZM9.48113 6.22859C8.96306 6.17794 8.46663 5.93864 8.0946 5.53514L15.4465 -1.24351C14.1388 -2.66178 12.3575 -3.53785 10.4542 -3.72395L9.48113 6.22859ZM8.0946 5.53514C7.72063 5.12956 7.50145 4.58743 7.50002 4.01122L17.5 3.98632C17.4951 2.03954 16.7561 0.176847 15.4465 -1.24351L8.0946 5.53514ZM7.5 3.99877C7.5 3.38241 7.74933 2.80721 8.1675 2.39529L15.1851 9.5194C16.6581 8.06843 17.5 6.08425 17.5 3.99877L7.5 3.99877ZM8.1675 2.39529C8.58305 1.98596 9.13044 1.76947 9.68531 1.76923L9.68969 11.7692C11.7366 11.7683 13.7148 10.9678 15.1851 9.5194L8.1675 2.39529ZM9.6875 1.76923H0.625V11.7692H9.6875V1.76923ZM0.625 1.76923C-0.842035 1.76923 -2.26432 2.34231 -3.32496 3.38664L3.69108 10.5123C2.86486 11.3258 1.76051 11.7692 0.625 11.7692V1.76923ZM-3.32496 3.38664C-4.38823 4.43355 -5 5.87009 -5 7.38462L5 7.38462C5 8.57272 4.51993 9.69621 3.69108 10.5123L-3.32496 3.38664ZM-5 7.38462C-5 8.89914 -4.38823 10.3357 -3.32496 11.3826L3.69108 4.25692C4.51993 5.07302 5 6.19651 5 7.38462L-5 7.38462ZM-3.32496 11.3826C-2.26432 12.4269 -0.842035 13 0.625 13V3C1.76051 3 2.86486 3.44341 3.69108 4.25692L-3.32496 11.3826ZM0.625 13H9.6875V3H0.625V13ZM9.80808 12.9985C12.1481 12.9421 14.3887 11.9876 16.0469 10.315L8.94516 3.2747C9.12203 3.09629 9.34686 3.00676 9.56692 3.00145L9.80808 12.9985ZM16.0469 10.315C17.7075 8.63992 18.651 6.37608 18.6517 4.00276L8.65172 3.99964C8.65181 3.71434 8.76585 3.45557 8.94516 3.2747L16.0469 10.315ZM18.6517 4.00276C18.6525 1.62945 17.7104 -0.634998 16.0508 -2.31111L8.94474 4.72482C8.76552 4.5438 8.65163 4.28494 8.65172 3.99964L18.6517 4.00276ZM16.0508 -2.31111C14.3937 -3.98475 12.1536 -4.94061 9.8136 -4.99847L9.5664 4.99847C9.34633 4.99303 9.12153 4.90336 8.94474 4.72482L16.0508 -2.31111ZM16.875 0.538462C14.7449 0.538462 12.6868 1.37089 11.1573 2.87684L18.1733 10.0025C17.8159 10.3544 17.3475 10.5385 16.875 10.5385V0.538462ZM11.1573 2.87684C9.62516 4.38537 8.75 6.44802 8.75 8.61539H18.75C18.75 9.15065 18.5333 9.64804 18.1733 10.0025L11.1573 2.87684ZM8.75 8.61539C8.75 10.1299 9.36176 11.5664 10.425 12.6134L17.4411 5.48769C18.2699 6.3038 18.75 7.42729 18.75 8.61539H8.75ZM10.425 12.6134C11.4857 13.6577 12.908 14.2308 14.375 14.2308V4.23077C15.5105 4.23077 16.6149 4.67418 17.4411 5.48769L10.425 12.6134ZM14.375 14.2308C15.842 14.2308 17.2643 13.6577 18.325 12.6134L11.3089 5.48769C12.1351 4.67418 13.2395 4.23077 14.375 4.23077V14.2308ZM18.325 12.6134C19.3882 11.5664 20 10.1299 20 8.61539H10C10 7.42729 10.4801 6.3038 11.3089 5.48769L18.325 12.6134ZM20 8.61539C20 9.25657 19.8065 9.87684 19.4533 10.3974L11.1787 4.78208C10.4134 5.90979 10 7.24393 10 8.61539H20ZM19.4533 10.3974C19.1007 10.9169 18.6078 11.3103 18.0457 11.5395L14.2693 2.28C13.0219 2.78871 11.9433 3.65531 11.1787 4.78208L19.4533 10.3974ZM18.0457 11.5395C17.4842 11.7685 16.8708 11.8272 16.2798 11.7115L18.2018 1.89793C16.8833 1.6397 15.5159 1.77157 14.2693 2.28L18.0457 11.5395ZM16.2798 11.7115C15.6884 11.5957 15.1347 11.3079 14.6928 10.8728L21.7088 3.74712C20.7425 2.79565 19.5206 2.15622 18.2018 1.89793L16.2798 11.7115ZM14.6928 10.8728C14.2501 10.4369 13.9396 9.87202 13.813 9.24532L23.615 7.26512C23.3437 5.92218 22.676 4.69941 21.7088 3.74712L14.6928 10.8728ZM13.813 9.24532C13.6863 8.61811 13.752 7.96887 13.9985 7.38303L23.2161 11.2607C23.7463 10.0002 23.8864 8.60856 23.615 7.26512L13.813 9.24532ZM13.9985 7.38303C14.2446 6.79803 14.656 6.31058 15.1686 5.97333L20.6648 14.3275C21.7941 13.5845 22.6861 12.5204 23.2161 11.2607L13.9985 7.38303ZM15.1686 5.97333C15.6804 5.63664 16.274 5.46154 16.875 5.46154V15.4615C18.2176 15.4615 19.5363 15.0699 20.6648 14.3275L15.1686 5.97333ZM16.875 5.46154H0.625V15.4615H16.875V5.46154ZM0.625 5.46154C-0.842035 5.46154 -2.26432 6.03462 -3.32496 7.07895L3.69108 14.2046C2.86486 15.0181 1.76051 15.4615 0.625 15.4615V5.46154ZM-3.32496 7.07895C-4.38823 8.12586 -5 9.5624 -5 11.0769H5C5 12.265 4.51993 13.3885 3.69108 14.2046L-3.32496 7.07895ZM-5 11.0769C-5 12.5914 -4.38823 14.028 -3.32496 15.0749L3.69108 7.94923C4.51993 8.76533 5 9.88882 5 11.0769H-5ZM-3.32496 15.0749C-2.26432 16.1192 -0.842035 16.6923 0.625 16.6923V6.69231C1.76051 6.69231 2.86486 7.13572 3.69108 7.94923L-3.32496 15.0749ZM0.625 16.6923H12.8125V6.69231H0.625V16.6923ZM12.8027 16.6923C11.9158 16.6906 11.0505 16.3427 10.4013 15.7009L17.4316 8.58928C16.1975 7.36932 14.538 6.6957 12.8223 6.69232L12.8027 16.6923ZM10.4013 15.7009C9.74948 15.0565 9.36997 14.167 9.37189 13.2237L19.3719 13.244C19.3754 11.4846 18.6683 9.81183 17.4316 8.58928L10.4013 15.7009ZM9.37189 13.2237C9.3738 12.2804 9.7569 11.3926 10.4111 10.751L17.4129 17.8906C18.6544 16.6732 19.3683 15.0033 19.3719 13.244L9.37189 13.2237ZM10.4111 10.751C11.0627 10.1119 11.9292 9.76749 12.8161 9.76924L12.7964 19.7692C14.5121 19.7726 16.1741 19.1055 17.4129 17.8906L10.4111 10.751ZM12.8027 9.76923C13.5894 9.76868 14.3616 10.0418 14.9811 10.5564L8.59149 18.2488C9.7817 19.2374 11.2765 19.7703 12.8098 19.7692L12.8027 9.76923ZM14.9811 10.5564C15.6024 11.0725 16.0326 11.8017 16.1745 12.6231L6.32051 14.3258C6.58766 15.8719 7.39955 17.2587 8.59149 18.2488L14.9811 10.5564ZM16.1774 12.64L16.1711 12.603L6.31138 14.272L6.31763 14.309L16.1774 12.64ZM16.1946 12.7559C16.0906 12.0007 15.8342 11.2772 15.4437 10.6283L6.87554 15.7846C6.57033 15.2774 6.3694 14.7112 6.28794 14.1192L16.1946 12.7559ZM15.4437 10.6283C15.0533 9.97962 14.5379 9.42009 13.9317 8.97971L8.05429 17.0702C7.58273 16.7277 7.18064 16.2916 6.87554 15.7846L15.4437 10.6283ZM13.9317 8.97971C13.3256 8.53947 12.6402 8.22645 11.9169 8.05563L9.61845 17.7879C9.05786 17.6555 8.52568 17.4127 8.05429 17.0702L13.9317 8.97971ZM11.9169 8.05563C11.1937 7.88483 10.4441 7.85885 9.71128 7.97886L11.3274 17.8474C10.7597 17.9404 10.1789 17.9203 9.61845 17.7879L11.9169 8.05563ZM9.71128 7.97886C8.97843 8.09888 8.27382 8.36307 7.63952 8.75903L12.935 17.2418C12.442 17.5496 11.8952 17.7544 11.3274 17.8474L9.71128 7.97886ZM7.63952 8.75903C7.00504 9.15511 6.45244 9.67593 6.01778 10.2942L14.1983 16.0456C13.8589 16.5284 13.4281 16.934 12.935 17.2418L7.63952 8.75903ZM6.01778 10.2942C5.58299 10.9126 5.27582 11.6149 5.11821 12.3603L14.9019 14.4292C14.7783 15.0132 14.5378 15.5627 14.1983 16.0456L6.01778 10.2942ZM5.11821 12.3603C4.96057 13.1058 4.95653 13.8755 5.10637 14.6226L14.9111 12.6562C15.0286 13.2417 15.0254 13.845 14.9019 14.4292L5.11821 12.3603ZM5.07888 14.4739L5.08513 14.5108L14.9449 12.8418L14.9386 12.8049L5.07888 14.4739ZM5.08658 14.5193C5.40043 16.3542 6.36191 18.0039 7.77949 19.1841L14.1775 11.4987C14.5731 11.828 14.8518 12.2979 14.9434 12.8333L5.08658 14.5193ZM7.77949 19.1841C9.19534 20.3628 10.9771 21.0004 12.8072 21L12.8053 11C13.297 10.9999 13.7837 11.1708 14.1775 11.4987L7.77949 19.1841ZM12.8041 21C14.8508 21.0009 16.8295 20.2026 18.3016 18.7564L11.2935 11.6229C11.7086 11.2151 12.2549 10.9998 12.8084 11L12.8041 21ZM18.3016 18.7564C19.7764 17.3075 20.6212 15.325 20.625 13.2398L10.625 13.2218C10.6261 12.6067 10.8758 12.0333 11.2935 11.6229L18.3016 18.7564ZM20.625 13.2308C20.625 11.6205 20.1269 10.1177 19.286 8.88096L11.0165 14.5037C10.7731 14.1457 10.625 13.7014 10.625 13.2308H20.625ZM15.1513 16.6923H16.875V6.69231H15.1513V16.6923ZM16.875 16.6923C19.0051 16.6923 21.0632 15.8599 22.5927 14.3539L15.5767 7.22826C15.9341 6.87638 16.4025 6.69231 16.875 6.69231V16.6923ZM22.5927 14.3539C24.1248 12.8454 25 10.7828 25 8.61539H15C15 8.08012 15.2167 7.58273 15.5767 7.22826L22.5927 14.3539ZM25 8.61539C25 6.44802 24.1248 4.38537 22.5927 2.87684L15.5767 10.0025C15.2167 9.64804 15 9.15065 15 8.61539H25ZM22.5927 2.87684C21.0632 1.37089 19.0051 0.538462 16.875 0.538462V10.5385C16.4025 10.5385 15.9341 10.3544 15.5767 10.0025L22.5927 2.87684Z" fill="#101828" mask="url(#path-1-inside-1_18_11583)"/>
</symbol>

<symbol id="shower" width="32" height="33" viewBox="0 0 32 33" fill="none">
<path d="M5.33325 5.83334L8.66659 9.16667M17.9999 9.16667C16.758 7.94958 15.0859 7.27178 13.3471 7.28056C11.6082 7.28934 9.94306 7.984 8.71349 9.21357C7.48391 10.4431 6.78926 12.1083 6.78048 13.8471C6.77169 15.586 7.44949 17.2581 8.66659 18.5M19.9999 7.16667L6.66659 20.5M18.6666 23.1667V23.18M13.3333 21.8333V21.8467M17.3333 17.8333V17.8467M21.3333 13.8333V13.8467M14.6666 27.1667V27.18M22.6666 19.1667V19.18M26.6666 15.1667V15.18" stroke="#101828" stroke-width="2" stroke-linecap="round" stroke-linejoin="round"/>
</symbol>

<symbol id="tv" width="32" height="33" viewBox="0 0 32 33" fill="none">
<path d="M24 26.5H8C5.784 26.5 4 24.716 4 22.5V12.5C4 10.284 5.784 8.5 8 8.5H24C26.216 8.5 28 10.284 28 12.5V22.5C28 24.716 26.216 26.5 24 26.5Z" stroke="#101828" stroke-width="1.8" stroke-linecap="round" stroke-linejoin="round"/>
<path d="M12 30.5H20" stroke="#101828" stroke-width="1.8" stroke-linecap="round" stroke-linejoin="round"/>
<path d="M16 8.5L22 2.5" stroke="#101828" stroke-width="1.8" stroke-linecap="round" stroke-linejoin="round"/>
<path d="M16 8.5L10 2.5" stroke="#101828" stroke-width="1.8" stroke-linecap="round" stroke-linejoin="round"/>
</symbol>

<!-- radio buttons -->

<symbol id="radio-alcove" width="40" height="29" viewBox="0 0 40 29" fill="none">
<path d="M2.28197 2.07469H13.14C13.2318 2.07469 13.318 2.03975 13.3831 1.97627L14.4262 0.95863C14.7294 0.662883 15.1324 0.5 15.5612 0.5H32.0257C32.7924 0.5 33.5042 0.871529 33.9299 1.49402L35.9032 4.38162C36.1831 4.79153 36.2088 5.31561 35.9707 5.75012C35.7327 6.18464 35.2706 6.45431 34.7657 6.45431H26.2799V7.29086H30.626C31.7781 7.29086 32.8146 7.95863 33.2666 8.99251L35.8113 14.811L38.0404 15.681C39.2308 16.1456 40 17.2537 40 18.5046V23.893C40 24.6966 39.3296 25.3506 38.5059 25.3506H35.9122C35.6106 27.1344 34.0187 28.5 32.1059 28.5C30.1932 28.5 28.6013 27.1344 28.2996 25.3506H14.1216C13.8199 27.1344 12.228 28.5 10.3153 28.5C8.40252 28.5 6.81059 27.1344 6.50895 25.3506H1.32812C0.595715 25.3506 0 24.7695 0 24.0549V4.30091C0 3.07315 1.02345 2.07469 2.28197 2.07469ZM32.1059 27.2698C33.5385 27.2698 34.7037 26.133 34.7037 24.7355C34.7037 23.338 33.5385 22.2012 32.1059 22.2012C30.6734 22.2012 29.5082 23.338 29.5082 24.7355C29.5082 26.133 30.6734 27.2698 32.1059 27.2698ZM26.2799 24.1204H28.2986C28.3037 24.0894 28.3102 24.0594 28.3163 24.0289C28.3203 24.0082 28.3238 23.9875 28.3284 23.9669C28.3385 23.9186 28.3501 23.8709 28.3622 23.8232C28.3647 23.8133 28.3667 23.8035 28.3697 23.7936C28.3849 23.7361 28.4015 23.6795 28.4192 23.6234C28.4242 23.6071 28.4303 23.5909 28.4358 23.5742C28.4489 23.5348 28.4625 23.4954 28.4767 23.4566C28.4847 23.4359 28.4928 23.4152 28.5014 23.3946C28.5145 23.3606 28.5276 23.3266 28.5422 23.2932C28.5513 23.271 28.5614 23.2494 28.5715 23.2277C28.5856 23.1957 28.5997 23.1647 28.6149 23.1333C28.626 23.1111 28.6366 23.0895 28.6482 23.0673C28.6633 23.0373 28.6794 23.0068 28.6956 22.9773C28.7072 22.9556 28.7193 22.934 28.7314 22.9123C28.748 22.8828 28.7657 22.8533 28.7834 22.8242C28.796 22.8035 28.8086 22.7829 28.8212 22.7622C28.8404 22.7327 28.8595 22.7037 28.8792 22.6741C28.8923 22.6549 28.9049 22.6357 28.918 22.617C28.9397 22.586 28.9624 22.5555 28.9856 22.525C28.9972 22.5088 29.0088 22.4925 29.0209 22.4768C29.0522 22.4364 29.084 22.3976 29.1163 22.3587C29.1208 22.3528 29.1253 22.3469 29.1304 22.341C29.1677 22.2967 29.2066 22.2534 29.2459 22.2111C29.258 22.1978 29.2706 22.1855 29.2832 22.1727C29.311 22.1437 29.3387 22.1146 29.3675 22.0861C29.3836 22.0703 29.4003 22.0551 29.4164 22.0398C29.4421 22.0152 29.4683 21.9906 29.4951 21.9665C29.5127 21.9508 29.5309 21.935 29.5491 21.9193C29.5753 21.8966 29.6015 21.8745 29.6282 21.8523L29.6858 21.8066C29.7125 21.7854 29.7397 21.7647 29.767 21.7441C29.7866 21.7293 29.8068 21.7146 29.827 21.7003C29.8547 21.6801 29.883 21.6609 29.9117 21.6412C29.9319 21.6279 29.9521 21.6142 29.9723 21.6009C30.002 21.5812 30.0328 21.5625 30.0631 21.5438C30.0827 21.532 30.1024 21.5197 30.1226 21.5079C30.1559 21.4882 30.1902 21.4695 30.2245 21.4508C30.2421 21.441 30.2593 21.4311 30.2764 21.4218C30.3253 21.3962 30.3743 21.3716 30.4237 21.3479C30.4277 21.3465 30.4313 21.3445 30.4353 21.3425C30.4888 21.3174 30.5433 21.2933 30.5977 21.2707C30.6154 21.2633 30.6335 21.2569 30.6512 21.2495C30.6885 21.2348 30.7264 21.22 30.7647 21.2057C30.7864 21.1979 30.8086 21.191 30.8303 21.1831C30.8651 21.1713 30.8999 21.1595 30.9352 21.1486C30.9589 21.1413 30.9826 21.1344 31.0068 21.1275C31.0411 21.1176 31.0754 21.1078 31.1097 21.0989C31.1344 21.0925 31.1591 21.0862 31.1844 21.0802C31.2187 21.0719 31.253 21.0645 31.2878 21.0571C31.313 21.0517 31.3382 21.0463 31.3639 21.0414C31.3992 21.035 31.4346 21.0286 31.4704 21.0232C31.4956 21.0187 31.5203 21.0148 31.546 21.0114C31.5828 21.0059 31.6202 21.0015 31.658 20.9971C31.6817 20.9946 31.7059 20.9912 31.7301 20.9892C31.7715 20.9853 31.8134 20.9823 31.8552 20.9799C31.8759 20.9784 31.8961 20.9764 31.9168 20.9759C31.9798 20.9725 32.0424 20.971 32.1059 20.971C32.1695 20.971 32.232 20.9725 32.2951 20.9759C32.3158 20.9764 32.3359 20.9784 32.3566 20.9799C32.3985 20.9823 32.4404 20.9853 32.4817 20.9892C32.5059 20.9912 32.5301 20.9946 32.5538 20.9971C32.5917 21.0015 32.629 21.0059 32.6658 21.0114C32.6916 21.0148 32.7163 21.0187 32.7415 21.0232C32.7773 21.0286 32.8126 21.035 32.8479 21.0414C32.8736 21.0463 32.8989 21.0517 32.9241 21.0571C32.9589 21.0645 32.9932 21.0719 33.0275 21.0802C33.0527 21.0862 33.0774 21.0925 33.1021 21.0989C33.1364 21.1078 33.1707 21.1176 33.205 21.1275C33.2293 21.1344 33.253 21.1413 33.2767 21.1486C33.312 21.1595 33.3468 21.1713 33.3816 21.1831C33.4033 21.191 33.4255 21.1979 33.4472 21.2057C33.4855 21.22 33.5233 21.2348 33.5607 21.2495C33.5783 21.2569 33.5965 21.2633 33.6141 21.2707C33.6686 21.2933 33.7231 21.3174 33.7765 21.3425C33.7806 21.3445 33.7841 21.3465 33.7881 21.3479C33.8376 21.3716 33.8865 21.3962 33.9354 21.4218C33.9526 21.4311 33.9697 21.441 33.9874 21.4508C34.0217 21.4695 34.056 21.4882 34.0893 21.5079C34.1095 21.5197 34.1291 21.532 34.1488 21.5438C34.1791 21.5625 34.2098 21.5812 34.2396 21.6009C34.2598 21.6142 34.2799 21.6279 34.3001 21.6412C34.3289 21.6609 34.3571 21.6801 34.3849 21.7003C34.405 21.7146 34.4252 21.7293 34.4449 21.7441C34.4721 21.7647 34.4994 21.7854 34.5261 21.8066L34.5836 21.8523C34.6103 21.8745 34.6366 21.8966 34.6628 21.9193C34.681 21.935 34.6991 21.9508 34.7168 21.9665C34.7435 21.9906 34.7697 22.0152 34.7955 22.0398C34.8116 22.0551 34.8282 22.0703 34.8444 22.0861C34.8731 22.1146 34.9009 22.1437 34.9286 22.1727C34.9412 22.1855 34.9538 22.1978 34.966 22.2111C35.0053 22.2534 35.0441 22.2967 35.0815 22.341C35.0865 22.3469 35.091 22.3528 35.0956 22.3587C35.1279 22.3976 35.1596 22.4364 35.1909 22.4768C35.203 22.4925 35.2146 22.5088 35.2262 22.525C35.2494 22.5555 35.2721 22.586 35.2938 22.617C35.3069 22.6357 35.3195 22.6549 35.3327 22.6741C35.3523 22.7037 35.3715 22.7327 35.3907 22.7622C35.4033 22.7829 35.4159 22.8035 35.4285 22.8242C35.4462 22.8533 35.4638 22.8828 35.4805 22.9123C35.4926 22.934 35.5047 22.9556 35.5163 22.9773C35.5324 23.0068 35.5486 23.0373 35.5637 23.0673C35.5753 23.0895 35.5859 23.1111 35.597 23.1333C35.6121 23.1647 35.6262 23.1957 35.6404 23.2277C35.6504 23.2494 35.6605 23.271 35.6696 23.2932C35.6842 23.3266 35.6974 23.3606 35.7105 23.3946C35.719 23.4152 35.7271 23.4359 35.7352 23.4566C35.7493 23.4954 35.7629 23.5348 35.776 23.5742C35.7816 23.5909 35.7876 23.6071 35.7927 23.6234C35.8103 23.6795 35.827 23.7361 35.8421 23.7936C35.8451 23.8035 35.8472 23.8133 35.8497 23.8232C35.8618 23.8709 35.8734 23.9186 35.8835 23.9669C35.888 23.9875 35.8916 24.0082 35.8956 24.0289C35.9016 24.0594 35.9082 24.0894 35.9132 24.1204H38.5059C38.6346 24.1204 38.739 24.0185 38.739 23.893V21.3155H37.7554V20.0852H38.739V18.5046C38.739 17.7596 38.281 17.0997 37.5723 16.8232L35.2126 15.9025H26.2799V24.1204ZM26.2799 14.6722H34.3798L32.1069 9.47526C31.8532 8.89557 31.2721 8.52109 30.626 8.52109H26.2799V14.6722ZM10.3153 27.2698C11.7478 27.2698 12.913 26.133 12.913 24.7355C12.913 23.338 11.7478 22.2012 10.3153 22.2012C10.2704 22.2012 10.226 22.2022 10.1816 22.2047C8.98815 22.2637 8.00454 23.1131 7.77049 24.2252C7.76192 24.2665 7.75385 24.3084 7.74729 24.3502C7.73418 24.4338 7.7256 24.519 7.72106 24.6051C7.71854 24.6484 7.71753 24.6917 7.71753 24.7355C7.71753 26.133 8.88272 27.2698 10.3153 27.2698ZM1.26103 20.0852H2.24464V21.3155H1.26103V24.0549C1.26103 24.0909 1.2913 24.1204 1.32812 24.1204H6.50795C6.51299 24.0899 6.51955 24.0599 6.5256 24.0298C6.52963 24.0087 6.53316 23.9875 6.5377 23.9664C6.54779 23.9191 6.55889 23.8724 6.571 23.8261C6.57402 23.8153 6.57604 23.804 6.57907 23.7931C6.5942 23.7361 6.61084 23.68 6.6285 23.6239C6.63404 23.6066 6.6401 23.5894 6.64565 23.5727C6.65876 23.5338 6.67188 23.4949 6.686 23.457C6.69407 23.4354 6.70265 23.4147 6.71072 23.3936C6.72383 23.3601 6.73745 23.3266 6.75107 23.2937C6.76066 23.271 6.77074 23.2489 6.78083 23.2268C6.79496 23.1957 6.80908 23.1647 6.82421 23.1337C6.8348 23.1111 6.84641 23.089 6.8575 23.0668C6.87263 23.0368 6.88827 23.0073 6.90442 22.9773C6.91652 22.9556 6.92862 22.934 6.94073 22.9123C6.95788 22.8828 6.97503 22.8537 6.99269 22.8247C7.00529 22.8036 7.01791 22.7829 7.03102 22.7622C7.04969 22.7327 7.06886 22.7037 7.08853 22.6751C7.10114 22.6554 7.11425 22.6357 7.12737 22.617C7.14906 22.586 7.17175 22.556 7.19395 22.526C7.20605 22.5093 7.21816 22.4925 7.23077 22.4763C7.26103 22.4374 7.29181 22.3991 7.32358 22.3612C7.32913 22.3543 7.33418 22.3474 7.33972 22.341C7.37756 22.2967 7.41589 22.2534 7.45523 22.2111C7.46784 22.1978 7.48045 22.185 7.49306 22.1717C7.52081 22.1427 7.54855 22.1141 7.5768 22.0861C7.59294 22.0703 7.60958 22.0551 7.62623 22.0393C7.65195 22.0147 7.67768 21.9906 7.70441 21.9665C7.72207 21.9508 7.74073 21.935 7.75889 21.9188C7.78461 21.8966 7.81084 21.8745 7.83758 21.8528C7.85675 21.8371 7.87592 21.8213 7.89559 21.8061C7.92182 21.7854 7.94905 21.7647 7.97629 21.7441C7.99596 21.7293 8.01614 21.7146 8.03632 21.7003C8.06406 21.6801 8.09231 21.6609 8.12055 21.6417C8.14124 21.6279 8.16141 21.6142 8.18159 21.6009C8.21135 21.5812 8.24161 21.5625 8.27188 21.5443C8.29206 21.532 8.31173 21.5197 8.3319 21.5079C8.36519 21.4882 8.39899 21.4695 8.43329 21.4508C8.45095 21.441 8.4681 21.4311 8.48625 21.4218C8.53417 21.3962 8.5826 21.3721 8.63203 21.3489C8.63607 21.347 8.6401 21.3445 8.64464 21.3425C8.69811 21.3174 8.75258 21.2933 8.80706 21.2707C8.82471 21.2633 8.84287 21.2569 8.86053 21.2495C8.89836 21.2348 8.93569 21.22 8.97402 21.2057C8.99571 21.1979 9.0179 21.191 9.0401 21.1831C9.0744 21.1713 9.10921 21.1595 9.14451 21.1486C9.16822 21.1413 9.19243 21.1344 9.21614 21.1275C9.25044 21.1176 9.28474 21.1078 9.31904 21.0989C9.34376 21.0925 9.36847 21.0862 9.39369 21.0802C9.42799 21.0719 9.4623 21.0645 9.4971 21.0571C9.52232 21.0517 9.54754 21.0463 9.57327 21.0414C9.60857 21.035 9.64388 21.0286 9.6797 21.0232C9.70492 21.0187 9.72964 21.0148 9.75536 21.0114C9.79218 21.0059 9.82951 21.0015 9.86734 20.9971C9.89105 20.9946 9.91526 20.9912 9.93947 20.9892C9.98083 20.9853 10.0227 20.9823 10.0646 20.9799C10.0852 20.9784 10.1054 20.9764 10.1261 20.9759C10.1892 20.9725 10.2517 20.971 10.3153 20.971C10.3788 20.971 10.4414 20.9725 10.5044 20.9759C10.5251 20.9764 10.5453 20.9784 10.566 20.9799C10.6078 20.9823 10.6497 20.9853 10.691 20.9892C10.7153 20.9912 10.7395 20.9946 10.7632 20.9971C10.801 21.0015 10.8383 21.0059 10.8752 21.0114C10.9009 21.0148 10.9256 21.0187 10.9508 21.0232C10.9866 21.0286 11.0219 21.035 11.0573 21.0414C11.083 21.0463 11.1082 21.0517 11.1334 21.0571C11.1682 21.0645 11.2025 21.0719 11.2368 21.0802C11.262 21.0862 11.2868 21.0925 11.3115 21.0989C11.3458 21.1078 11.3801 21.1176 11.4144 21.1275C11.4381 21.1344 11.4623 21.1413 11.486 21.1486C11.5213 21.1595 11.5561 21.1713 11.5904 21.1831C11.6126 21.191 11.6348 21.1979 11.6565 21.2057C11.6948 21.22 11.7322 21.2348 11.77 21.2495C11.7876 21.2569 11.8058 21.2633 11.8235 21.2707C11.8779 21.2933 11.9324 21.3174 11.9859 21.3425C11.9904 21.3445 11.9945 21.3465 11.9985 21.3489C12.0479 21.3721 12.0963 21.3962 12.1443 21.4218C12.1624 21.4311 12.1796 21.441 12.1972 21.4508C12.231 21.4695 12.2653 21.4882 12.2986 21.5079C12.3188 21.5197 12.3385 21.532 12.3586 21.5443C12.3889 21.5625 12.4192 21.5812 12.4489 21.6009C12.4691 21.6142 12.4893 21.6279 12.51 21.6417C12.5382 21.6609 12.5665 21.6801 12.5942 21.7003C12.6144 21.7146 12.6346 21.7293 12.6542 21.7441C12.6815 21.7647 12.7087 21.7854 12.7349 21.8061C12.7546 21.8213 12.7738 21.8371 12.7929 21.8528C12.8197 21.8745 12.8459 21.8966 12.8716 21.9193C12.8898 21.935 12.9084 21.9508 12.9261 21.9665C12.9528 21.9906 12.9786 22.0152 13.0048 22.0398C13.0209 22.0551 13.0376 22.0703 13.0537 22.0861C13.082 22.1141 13.1102 22.1432 13.138 22.1722C13.1501 22.185 13.1632 22.1978 13.1753 22.2111C13.2146 22.2534 13.253 22.2967 13.2908 22.341C13.2958 22.3474 13.3009 22.3538 13.3059 22.3597C13.3377 22.3981 13.3695 22.4369 13.3997 22.4768C13.4124 22.4925 13.424 22.5088 13.4361 22.525C13.4588 22.5555 13.4815 22.586 13.5032 22.617C13.5163 22.6357 13.5289 22.6554 13.542 22.6746C13.5617 22.7037 13.5808 22.7327 13.5995 22.7622C13.6126 22.7829 13.6252 22.8035 13.6378 22.8242C13.6555 22.8533 13.6731 22.8828 13.6898 22.9123C13.7019 22.934 13.714 22.9556 13.7256 22.9773C13.7422 23.0068 13.7579 23.0373 13.7735 23.0673C13.7846 23.0895 13.7952 23.1111 13.8063 23.1333C13.8214 23.1647 13.8356 23.1962 13.8497 23.2277C13.8598 23.2494 13.8699 23.271 13.8789 23.2932C13.8936 23.3266 13.9067 23.3606 13.9203 23.3946C13.9284 23.4152 13.9364 23.4359 13.9445 23.4566C13.9591 23.4959 13.9723 23.5353 13.9854 23.5751C13.9909 23.5914 13.997 23.6071 14.002 23.6234C14.0197 23.6795 14.0363 23.7366 14.052 23.7936C14.054 23.8025 14.056 23.8118 14.058 23.8207C14.0706 23.8694 14.0822 23.9181 14.0928 23.9673C14.0974 23.987 14.1009 24.0072 14.1044 24.0274C14.1105 24.0584 14.117 24.0889 14.1226 24.1204H25.0189V5.83919C25.0189 5.49965 25.3014 5.22408 25.6494 5.22408H34.7657C34.7813 5.22408 34.8293 5.22408 34.859 5.16946C34.8888 5.11533 34.8625 5.07645 34.8535 5.06415L32.8807 2.17656C32.6895 1.89705 32.3702 1.73023 32.0257 1.73023H15.5612C15.4694 1.73023 15.3831 1.76517 15.318 1.82865L14.2749 2.84629C13.9718 3.14204 13.5687 3.30492 13.14 3.30492H2.28197C1.71904 3.30492 1.26103 3.75174 1.26103 4.30091V20.0852Z" fill="#101828"/>
<path d="M17.6013 6.7981H21.5897C22.3953 6.7981 23.051 7.43732 23.051 8.22368V21.3886C23.051 21.7281 22.7686 22.0037 22.4205 22.0037H16.7711C16.423 22.0037 16.1406 21.7281 16.1406 21.3886V8.22368C16.1401 7.43732 16.7953 6.7981 17.6013 6.7981ZM17.4011 20.7735H21.7895V13.5397H17.4011V20.7735ZM17.4011 12.3095H21.7895V8.22368C21.7895 8.11592 21.6997 8.02832 21.5892 8.02832H17.6008C17.4904 8.02832 17.4006 8.11592 17.4006 8.22368V12.3095H17.4011ZM4.84371 6.7981H12.5562C13.4475 6.7981 14.1728 7.50572 14.1728 8.37525V11.9631C14.1728 12.8326 13.4475 13.5402 12.5562 13.5402H4.8432C3.9519 13.5402 3.22656 12.8326 3.22656 11.9631V8.37525C3.22706 7.50572 3.95241 6.7981 4.84371 6.7981ZM4.4881 11.9626C4.4881 12.1535 4.64749 12.3095 4.84371 12.3095H12.5562C12.7524 12.3095 12.9118 12.154 12.9118 11.9626V8.37476C12.9118 8.18382 12.7524 8.02783 12.5562 8.02783H4.8432C4.64699 8.02783 4.48759 8.18333 4.48759 8.37476V11.9626H4.4881Z" fill="#101828"/>
</symbol>

<symbol id="radio-integrated" width="40" height="29" viewBox="0 0 40 29" fill="none">
<path d="M2.28197 2.07469H13.14C13.2318 2.07469 13.318 2.03975 13.3831 1.97627L14.4262 0.95863C14.7294 0.662883 15.1324 0.5 15.5612 0.5H32.0257C32.7924 0.5 33.5042 0.871529 33.9299 1.49402L35.9032 4.38162C36.1831 4.79153 36.2088 5.31561 35.9707 5.75012C35.7327 6.18464 35.2706 6.45431 34.7657 6.45431H26.2799V7.29086H30.626C31.7781 7.29086 32.8146 7.95863 33.2666 8.99251L35.8113 14.811L38.0404 15.681C39.2308 16.1456 40 17.2537 40 18.5046V23.893C40 24.6966 39.3296 25.3506 38.5059 25.3506H35.9122C35.6106 27.1344 34.0187 28.5 32.1059 28.5C30.1932 28.5 28.6013 27.1344 28.2996 25.3506H14.1216C13.8199 27.1344 12.228 28.5 10.3153 28.5C8.40252 28.5 6.81059 27.1344 6.50895 25.3506H1.32812C0.595715 25.3506 0 24.7695 0 24.0549V4.30091C0 3.07315 1.02345 2.07469 2.28197 2.07469ZM32.1059 27.2698C33.5385 27.2698 34.7037 26.133 34.7037 24.7355C34.7037 23.338 33.5385 22.2012 32.1059 22.2012C30.6734 22.2012 29.5082 23.338 29.5082 24.7355C29.5082 26.133 30.6734 27.2698 32.1059 27.2698ZM26.2799 24.1204H28.2986C28.3037 24.0894 28.3102 24.0594 28.3163 24.0289C28.3203 24.0082 28.3238 23.9875 28.3284 23.9669C28.3385 23.9186 28.3501 23.8709 28.3622 23.8232C28.3647 23.8133 28.3667 23.8035 28.3697 23.7936C28.3849 23.7361 28.4015 23.6795 28.4192 23.6234C28.4242 23.6071 28.4303 23.5909 28.4358 23.5742C28.4489 23.5348 28.4625 23.4954 28.4767 23.4566C28.4847 23.4359 28.4928 23.4152 28.5014 23.3946C28.5145 23.3606 28.5276 23.3266 28.5422 23.2932C28.5513 23.271 28.5614 23.2494 28.5715 23.2277C28.5856 23.1957 28.5997 23.1647 28.6149 23.1333C28.626 23.1111 28.6366 23.0895 28.6482 23.0673C28.6633 23.0373 28.6794 23.0068 28.6956 22.9773C28.7072 22.9556 28.7193 22.934 28.7314 22.9123C28.748 22.8828 28.7657 22.8533 28.7834 22.8242C28.796 22.8035 28.8086 22.7829 28.8212 22.7622C28.8404 22.7327 28.8595 22.7037 28.8792 22.6741C28.8923 22.6549 28.9049 22.6357 28.918 22.617C28.9397 22.586 28.9624 22.5555 28.9856 22.525C28.9972 22.5088 29.0088 22.4925 29.0209 22.4768C29.0522 22.4364 29.084 22.3976 29.1163 22.3587C29.1208 22.3528 29.1253 22.3469 29.1304 22.341C29.1677 22.2967 29.2066 22.2534 29.2459 22.2111C29.258 22.1978 29.2706 22.1855 29.2832 22.1727C29.311 22.1437 29.3387 22.1146 29.3675 22.0861C29.3836 22.0703 29.4003 22.0551 29.4164 22.0398C29.4421 22.0152 29.4683 21.9906 29.4951 21.9665C29.5127 21.9508 29.5309 21.935 29.5491 21.9193C29.5753 21.8966 29.6015 21.8745 29.6282 21.8523L29.6858 21.8066C29.7125 21.7854 29.7397 21.7647 29.767 21.7441C29.7866 21.7293 29.8068 21.7146 29.827 21.7003C29.8547 21.6801 29.883 21.6609 29.9117 21.6412C29.9319 21.6279 29.9521 21.6142 29.9723 21.6009C30.002 21.5812 30.0328 21.5625 30.0631 21.5438C30.0827 21.532 30.1024 21.5197 30.1226 21.5079C30.1559 21.4882 30.1902 21.4695 30.2245 21.4508C30.2421 21.441 30.2593 21.4311 30.2764 21.4218C30.3253 21.3962 30.3743 21.3716 30.4237 21.3479C30.4277 21.3465 30.4313 21.3445 30.4353 21.3425C30.4888 21.3174 30.5433 21.2933 30.5977 21.2707C30.6154 21.2633 30.6335 21.2569 30.6512 21.2495C30.6885 21.2348 30.7264 21.22 30.7647 21.2057C30.7864 21.1979 30.8086 21.191 30.8303 21.1831C30.8651 21.1713 30.8999 21.1595 30.9352 21.1486C30.9589 21.1413 30.9826 21.1344 31.0068 21.1275C31.0411 21.1176 31.0754 21.1078 31.1097 21.0989C31.1344 21.0925 31.1591 21.0862 31.1844 21.0802C31.2187 21.0719 31.253 21.0645 31.2878 21.0571C31.313 21.0517 31.3382 21.0463 31.3639 21.0414C31.3992 21.035 31.4346 21.0286 31.4704 21.0232C31.4956 21.0187 31.5203 21.0148 31.546 21.0114C31.5828 21.0059 31.6202 21.0015 31.658 20.9971C31.6817 20.9946 31.7059 20.9912 31.7301 20.9892C31.7715 20.9853 31.8134 20.9823 31.8552 20.9799C31.8759 20.9784 31.8961 20.9764 31.9168 20.9759C31.9798 20.9725 32.0424 20.971 32.1059 20.971C32.1695 20.971 32.232 20.9725 32.2951 20.9759C32.3158 20.9764 32.3359 20.9784 32.3566 20.9799C32.3985 20.9823 32.4404 20.9853 32.4817 20.9892C32.5059 20.9912 32.5301 20.9946 32.5538 20.9971C32.5917 21.0015 32.629 21.0059 32.6658 21.0114C32.6916 21.0148 32.7163 21.0187 32.7415 21.0232C32.7773 21.0286 32.8126 21.035 32.8479 21.0414C32.8736 21.0463 32.8989 21.0517 32.9241 21.0571C32.9589 21.0645 32.9932 21.0719 33.0275 21.0802C33.0527 21.0862 33.0774 21.0925 33.1021 21.0989C33.1364 21.1078 33.1707 21.1176 33.205 21.1275C33.2293 21.1344 33.253 21.1413 33.2767 21.1486C33.312 21.1595 33.3468 21.1713 33.3816 21.1831C33.4033 21.191 33.4255 21.1979 33.4472 21.2057C33.4855 21.22 33.5233 21.2348 33.5607 21.2495C33.5783 21.2569 33.5965 21.2633 33.6141 21.2707C33.6686 21.2933 33.7231 21.3174 33.7765 21.3425C33.7806 21.3445 33.7841 21.3465 33.7881 21.3479C33.8376 21.3716 33.8865 21.3962 33.9354 21.4218C33.9526 21.4311 33.9697 21.441 33.9874 21.4508C34.0217 21.4695 34.056 21.4882 34.0893 21.5079C34.1095 21.5197 34.1291 21.532 34.1488 21.5438C34.1791 21.5625 34.2098 21.5812 34.2396 21.6009C34.2598 21.6142 34.2799 21.6279 34.3001 21.6412C34.3289 21.6609 34.3571 21.6801 34.3849 21.7003C34.405 21.7146 34.4252 21.7293 34.4449 21.7441C34.4721 21.7647 34.4994 21.7854 34.5261 21.8066L34.5836 21.8523C34.6103 21.8745 34.6366 21.8966 34.6628 21.9193C34.681 21.935 34.6991 21.9508 34.7168 21.9665C34.7435 21.9906 34.7697 22.0152 34.7955 22.0398C34.8116 22.0551 34.8282 22.0703 34.8444 22.0861C34.8731 22.1146 34.9009 22.1437 34.9286 22.1727C34.9412 22.1855 34.9538 22.1978 34.966 22.2111C35.0053 22.2534 35.0441 22.2967 35.0815 22.341C35.0865 22.3469 35.091 22.3528 35.0956 22.3587C35.1279 22.3976 35.1596 22.4364 35.1909 22.4768C35.203 22.4925 35.2146 22.5088 35.2262 22.525C35.2494 22.5555 35.2721 22.586 35.2938 22.617C35.3069 22.6357 35.3195 22.6549 35.3327 22.6741C35.3523 22.7037 35.3715 22.7327 35.3907 22.7622C35.4033 22.7829 35.4159 22.8035 35.4285 22.8242C35.4462 22.8533 35.4638 22.8828 35.4805 22.9123C35.4926 22.934 35.5047 22.9556 35.5163 22.9773C35.5324 23.0068 35.5486 23.0373 35.5637 23.0673C35.5753 23.0895 35.5859 23.1111 35.597 23.1333C35.6121 23.1647 35.6262 23.1957 35.6404 23.2277C35.6504 23.2494 35.6605 23.271 35.6696 23.2932C35.6842 23.3266 35.6974 23.3606 35.7105 23.3946C35.719 23.4152 35.7271 23.4359 35.7352 23.4566C35.7493 23.4954 35.7629 23.5348 35.776 23.5742C35.7816 23.5909 35.7876 23.6071 35.7927 23.6234C35.8103 23.6795 35.827 23.7361 35.8421 23.7936C35.8451 23.8035 35.8472 23.8133 35.8497 23.8232C35.8618 23.8709 35.8734 23.9186 35.8835 23.9669C35.888 23.9875 35.8916 24.0082 35.8956 24.0289C35.9016 24.0594 35.9082 24.0894 35.9132 24.1204H38.5059C38.6346 24.1204 38.739 24.0185 38.739 23.893V21.3155H37.7554V20.0852H38.739V18.5046C38.739 17.7596 38.281 17.0997 37.5723 16.8232L35.2126 15.9025H26.2799V24.1204ZM26.2799 14.6722H34.3798L32.1069 9.47526C31.8532 8.89557 31.2721 8.52109 30.626 8.52109H26.2799V14.6722ZM10.3153 27.2698C11.7478 27.2698 12.913 26.133 12.913 24.7355C12.913 23.338 11.7478 22.2012 10.3153 22.2012C10.2704 22.2012 10.226 22.2022 10.1816 22.2047C8.98815 22.2637 8.00454 23.1131 7.77049 24.2252C7.76192 24.2665 7.75385 24.3084 7.74729 24.3502C7.73418 24.4338 7.7256 24.519 7.72106 24.6051C7.71854 24.6484 7.71753 24.6917 7.71753 24.7355C7.71753 26.133 8.88272 27.2698 10.3153 27.2698ZM1.26103 20.0852H2.24464V21.3155H1.26103V24.0549C1.26103 24.0909 1.2913 24.1204 1.32812 24.1204H6.50795C6.51299 24.0899 6.51955 24.0599 6.5256 24.0298C6.52963 24.0087 6.53316 23.9875 6.5377 23.9664C6.54779 23.9191 6.55889 23.8724 6.571 23.8261C6.57402 23.8153 6.57604 23.804 6.57907 23.7931C6.5942 23.7361 6.61084 23.68 6.6285 23.6239C6.63404 23.6066 6.6401 23.5894 6.64565 23.5727C6.65876 23.5338 6.67188 23.4949 6.686 23.457C6.69407 23.4354 6.70265 23.4147 6.71072 23.3936C6.72383 23.3601 6.73745 23.3266 6.75107 23.2937C6.76066 23.271 6.77074 23.2489 6.78083 23.2268C6.79496 23.1957 6.80908 23.1647 6.82421 23.1337C6.8348 23.1111 6.84641 23.089 6.8575 23.0668C6.87263 23.0368 6.88827 23.0073 6.90442 22.9773C6.91652 22.9556 6.92862 22.934 6.94073 22.9123C6.95788 22.8828 6.97503 22.8537 6.99269 22.8247C7.00529 22.8036 7.01791 22.7829 7.03102 22.7622C7.04969 22.7327 7.06886 22.7037 7.08853 22.6751C7.10114 22.6554 7.11425 22.6357 7.12737 22.617C7.14906 22.586 7.17175 22.556 7.19395 22.526C7.20605 22.5093 7.21816 22.4925 7.23077 22.4763C7.26103 22.4374 7.29181 22.3991 7.32358 22.3612C7.32913 22.3543 7.33418 22.3474 7.33972 22.341C7.37756 22.2967 7.41589 22.2534 7.45523 22.2111C7.46784 22.1978 7.48045 22.185 7.49306 22.1717C7.52081 22.1427 7.54855 22.1141 7.5768 22.0861C7.59294 22.0703 7.60958 22.0551 7.62623 22.0393C7.65195 22.0147 7.67768 21.9906 7.70441 21.9665C7.72207 21.9508 7.74073 21.935 7.75889 21.9188C7.78461 21.8966 7.81084 21.8745 7.83758 21.8528C7.85675 21.8371 7.87592 21.8213 7.89559 21.8061C7.92182 21.7854 7.94905 21.7647 7.97629 21.7441C7.99596 21.7293 8.01614 21.7146 8.03632 21.7003C8.06406 21.6801 8.09231 21.6609 8.12055 21.6417C8.14124 21.6279 8.16141 21.6142 8.18159 21.6009C8.21135 21.5812 8.24161 21.5625 8.27188 21.5443C8.29206 21.532 8.31173 21.5197 8.3319 21.5079C8.36519 21.4882 8.39899 21.4695 8.43329 21.4508C8.45095 21.441 8.4681 21.4311 8.48625 21.4218C8.53417 21.3962 8.5826 21.3721 8.63203 21.3489C8.63607 21.347 8.6401 21.3445 8.64464 21.3425C8.69811 21.3174 8.75258 21.2933 8.80706 21.2707C8.82471 21.2633 8.84287 21.2569 8.86053 21.2495C8.89836 21.2348 8.93569 21.22 8.97402 21.2057C8.99571 21.1979 9.0179 21.191 9.0401 21.1831C9.0744 21.1713 9.10921 21.1595 9.14451 21.1486C9.16822 21.1413 9.19243 21.1344 9.21614 21.1275C9.25044 21.1176 9.28474 21.1078 9.31904 21.0989C9.34376 21.0925 9.36847 21.0862 9.39369 21.0802C9.42799 21.0719 9.4623 21.0645 9.4971 21.0571C9.52232 21.0517 9.54754 21.0463 9.57327 21.0414C9.60857 21.035 9.64388 21.0286 9.6797 21.0232C9.70492 21.0187 9.72964 21.0148 9.75536 21.0114C9.79218 21.0059 9.82951 21.0015 9.86734 20.9971C9.89105 20.9946 9.91526 20.9912 9.93947 20.9892C9.98083 20.9853 10.0227 20.9823 10.0646 20.9799C10.0852 20.9784 10.1054 20.9764 10.1261 20.9759C10.1892 20.9725 10.2517 20.971 10.3153 20.971C10.3788 20.971 10.4414 20.9725 10.5044 20.9759C10.5251 20.9764 10.5453 20.9784 10.566 20.9799C10.6078 20.9823 10.6497 20.9853 10.691 20.9892C10.7153 20.9912 10.7395 20.9946 10.7632 20.9971C10.801 21.0015 10.8383 21.0059 10.8752 21.0114C10.9009 21.0148 10.9256 21.0187 10.9508 21.0232C10.9866 21.0286 11.0219 21.035 11.0573 21.0414C11.083 21.0463 11.1082 21.0517 11.1334 21.0571C11.1682 21.0645 11.2025 21.0719 11.2368 21.0802C11.262 21.0862 11.2868 21.0925 11.3115 21.0989C11.3458 21.1078 11.3801 21.1176 11.4144 21.1275C11.4381 21.1344 11.4623 21.1413 11.486 21.1486C11.5213 21.1595 11.5561 21.1713 11.5904 21.1831C11.6126 21.191 11.6348 21.1979 11.6565 21.2057C11.6948 21.22 11.7322 21.2348 11.77 21.2495C11.7876 21.2569 11.8058 21.2633 11.8235 21.2707C11.8779 21.2933 11.9324 21.3174 11.9859 21.3425C11.9904 21.3445 11.9945 21.3465 11.9985 21.3489C12.0479 21.3721 12.0963 21.3962 12.1443 21.4218C12.1624 21.4311 12.1796 21.441 12.1972 21.4508C12.231 21.4695 12.2653 21.4882 12.2986 21.5079C12.3188 21.5197 12.3385 21.532 12.3586 21.5443C12.3889 21.5625 12.4192 21.5812 12.4489 21.6009C12.4691 21.6142 12.4893 21.6279 12.51 21.6417C12.5382 21.6609 12.5665 21.6801 12.5942 21.7003C12.6144 21.7146 12.6346 21.7293 12.6542 21.7441C12.6815 21.7647 12.7087 21.7854 12.7349 21.8061C12.7546 21.8213 12.7738 21.8371 12.7929 21.8528C12.8197 21.8745 12.8459 21.8966 12.8716 21.9193C12.8898 21.935 12.9084 21.9508 12.9261 21.9665C12.9528 21.9906 12.9786 22.0152 13.0048 22.0398C13.0209 22.0551 13.0376 22.0703 13.0537 22.0861C13.082 22.1141 13.1102 22.1432 13.138 22.1722C13.1501 22.185 13.1632 22.1978 13.1753 22.2111C13.2146 22.2534 13.253 22.2967 13.2908 22.341C13.2958 22.3474 13.3009 22.3538 13.3059 22.3597C13.3377 22.3981 13.3695 22.4369 13.3997 22.4768C13.4124 22.4925 13.424 22.5088 13.4361 22.525C13.4588 22.5555 13.4815 22.586 13.5032 22.617C13.5163 22.6357 13.5289 22.6554 13.542 22.6746C13.5617 22.7037 13.5808 22.7327 13.5995 22.7622C13.6126 22.7829 13.6252 22.8035 13.6378 22.8242C13.6555 22.8533 13.6731 22.8828 13.6898 22.9123C13.7019 22.934 13.714 22.9556 13.7256 22.9773C13.7422 23.0068 13.7579 23.0373 13.7735 23.0673C13.7846 23.0895 13.7952 23.1111 13.8063 23.1333C13.8214 23.1647 13.8356 23.1962 13.8497 23.2277C13.8598 23.2494 13.8699 23.271 13.8789 23.2932C13.8936 23.3266 13.9067 23.3606 13.9203 23.3946C13.9284 23.4152 13.9364 23.4359 13.9445 23.4566C13.9591 23.4959 13.9723 23.5353 13.9854 23.5751C13.9909 23.5914 13.997 23.6071 14.002 23.6234C14.0197 23.6795 14.0363 23.7366 14.052 23.7936C14.054 23.8025 14.056 23.8118 14.058 23.8207C14.0706 23.8694 14.0822 23.9181 14.0928 23.9673C14.0974 23.987 14.1009 24.0072 14.1044 24.0274C14.1105 24.0584 14.117 24.0889 14.1226 24.1204H25.0189V5.83919C25.0189 5.49965 25.3014 5.22408 25.6494 5.22408H34.7657C34.7813 5.22408 34.8293 5.22408 34.859 5.16946C34.8888 5.11533 34.8625 5.07645 34.8535 5.06415L32.8807 2.17656C32.6895 1.89705 32.3702 1.73023 32.0257 1.73023H15.5612C15.4694 1.73023 15.3831 1.76517 15.318 1.82865L14.2749 2.84629C13.9718 3.14204 13.5687 3.30492 13.14 3.30492H2.28197C1.71904 3.30492 1.26103 3.75174 1.26103 4.30091V20.0852Z" fill="#101828"/>
<path d="M17.6013 6.7981H21.5897C22.3953 6.7981 23.051 7.43732 23.051 8.22368V21.3886C23.051 21.7281 22.7686 22.0037 22.4205 22.0037H16.7711C16.423 22.0037 16.1406 21.7281 16.1406 21.3886V8.22368C16.1401 7.43732 16.7953 6.7981 17.6013 6.7981ZM17.4011 20.7735H21.7895V13.5397H17.4011V20.7735ZM17.4011 12.3095H21.7895V8.22368C21.7895 8.11592 21.6997 8.02832 21.5892 8.02832H17.6008C17.4904 8.02832 17.4006 8.11592 17.4006 8.22368L17.4011 12.3095Z" fill="#101828"/>
</symbol>

<symbol id="radio-van" width="40" height="28" viewBox="0 0 40 28" fill="none">
<path d="M2.28197 1.57469H13.14C13.2318 1.57469 13.318 1.53975 13.3831 1.47627L14.4262 0.45863C14.7294 0.162883 15.1324 0 15.5612 0H32.0257C32.7924 0 33.5042 0.371529 33.9299 0.994024L35.9032 3.88162C36.1831 4.29153 36.2088 4.81561 35.9707 5.25012C35.7327 5.68464 35.2706 5.95431 34.7657 5.95431H26.2799V6.79086H30.626C31.7781 6.79086 32.8146 7.45863 33.2666 8.49251L35.8113 14.311L38.0404 15.181C39.2308 15.6456 40 16.7537 40 18.0046V23.393C40 24.1966 39.3296 24.8506 38.5059 24.8506H35.9122C35.6106 26.6344 34.0187 28 32.1059 28C30.1932 28 28.6013 26.6344 28.2996 24.8506H14.1216C13.8199 26.6344 12.228 28 10.3153 28C8.40252 28 6.81059 26.6344 6.50895 24.8506H1.32812C0.595715 24.8506 0 24.2695 0 23.5549V3.80091C0 2.57315 1.02345 1.57469 2.28197 1.57469ZM32.1059 26.7698C33.5385 26.7698 34.7037 25.633 34.7037 24.2355C34.7037 22.838 33.5385 21.7012 32.1059 21.7012C30.6734 21.7012 29.5082 22.838 29.5082 24.2355C29.5082 25.633 30.6734 26.7698 32.1059 26.7698ZM26.2799 23.6204H28.2986C28.3037 23.5894 28.3102 23.5594 28.3163 23.5289C28.3203 23.5082 28.3238 23.4875 28.3284 23.4669C28.3385 23.4186 28.3501 23.3709 28.3622 23.3232C28.3647 23.3133 28.3667 23.3035 28.3697 23.2936C28.3849 23.2361 28.4015 23.1795 28.4192 23.1234C28.4242 23.1071 28.4303 23.0909 28.4358 23.0742C28.4489 23.0348 28.4625 22.9954 28.4767 22.9566C28.4847 22.9359 28.4928 22.9152 28.5014 22.8946C28.5145 22.8606 28.5276 22.8266 28.5422 22.7932C28.5513 22.771 28.5614 22.7494 28.5715 22.7277C28.5856 22.6957 28.5997 22.6647 28.6149 22.6333C28.626 22.6111 28.6366 22.5895 28.6482 22.5673C28.6633 22.5373 28.6794 22.5068 28.6956 22.4773C28.7072 22.4556 28.7193 22.434 28.7314 22.4123C28.748 22.3828 28.7657 22.3533 28.7834 22.3242C28.796 22.3035 28.8086 22.2829 28.8212 22.2622C28.8404 22.2327 28.8595 22.2037 28.8792 22.1741C28.8923 22.1549 28.9049 22.1357 28.918 22.117C28.9397 22.086 28.9624 22.0555 28.9856 22.025C28.9972 22.0088 29.0088 21.9925 29.0209 21.9768C29.0522 21.9364 29.084 21.8976 29.1163 21.8587C29.1208 21.8528 29.1253 21.8469 29.1304 21.841C29.1677 21.7967 29.2066 21.7534 29.2459 21.7111C29.258 21.6978 29.2706 21.6855 29.2832 21.6727C29.311 21.6437 29.3387 21.6146 29.3675 21.5861C29.3836 21.5703 29.4003 21.5551 29.4164 21.5398C29.4421 21.5152 29.4683 21.4906 29.4951 21.4665C29.5127 21.4508 29.5309 21.435 29.5491 21.4193C29.5753 21.3966 29.6015 21.3745 29.6282 21.3523L29.6858 21.3066C29.7125 21.2854 29.7397 21.2647 29.767 21.2441C29.7866 21.2293 29.8068 21.2146 29.827 21.2003C29.8547 21.1801 29.883 21.1609 29.9117 21.1412C29.9319 21.1279 29.9521 21.1142 29.9723 21.1009C30.002 21.0812 30.0328 21.0625 30.0631 21.0438C30.0827 21.032 30.1024 21.0197 30.1226 21.0079C30.1559 20.9882 30.1902 20.9695 30.2245 20.9508C30.2421 20.941 30.2593 20.9311 30.2764 20.9218C30.3253 20.8962 30.3743 20.8716 30.4237 20.8479C30.4277 20.8465 30.4313 20.8445 30.4353 20.8425C30.4888 20.8174 30.5433 20.7933 30.5977 20.7707C30.6154 20.7633 30.6335 20.7569 30.6512 20.7495C30.6885 20.7348 30.7264 20.72 30.7647 20.7057C30.7864 20.6979 30.8086 20.691 30.8303 20.6831C30.8651 20.6713 30.8999 20.6595 30.9352 20.6486C30.9589 20.6413 30.9826 20.6344 31.0068 20.6275C31.0411 20.6176 31.0754 20.6078 31.1097 20.5989C31.1344 20.5925 31.1591 20.5862 31.1844 20.5802C31.2187 20.5719 31.253 20.5645 31.2878 20.5571C31.313 20.5517 31.3382 20.5463 31.3639 20.5414C31.3992 20.535 31.4346 20.5286 31.4704 20.5232C31.4956 20.5187 31.5203 20.5148 31.546 20.5114C31.5828 20.5059 31.6202 20.5015 31.658 20.4971C31.6817 20.4946 31.7059 20.4912 31.7301 20.4892C31.7715 20.4853 31.8134 20.4823 31.8552 20.4799C31.8759 20.4784 31.8961 20.4764 31.9168 20.4759C31.9798 20.4725 32.0424 20.471 32.1059 20.471C32.1695 20.471 32.232 20.4725 32.2951 20.4759C32.3158 20.4764 32.3359 20.4784 32.3566 20.4799C32.3985 20.4823 32.4404 20.4853 32.4817 20.4892C32.5059 20.4912 32.5301 20.4946 32.5538 20.4971C32.5917 20.5015 32.629 20.5059 32.6658 20.5114C32.6916 20.5148 32.7163 20.5187 32.7415 20.5232C32.7773 20.5286 32.8126 20.535 32.8479 20.5414C32.8736 20.5463 32.8989 20.5517 32.9241 20.5571C32.9589 20.5645 32.9932 20.5719 33.0275 20.5802C33.0527 20.5862 33.0774 20.5925 33.1021 20.5989C33.1364 20.6078 33.1707 20.6176 33.205 20.6275C33.2293 20.6344 33.253 20.6413 33.2767 20.6486C33.312 20.6595 33.3468 20.6713 33.3816 20.6831C33.4033 20.691 33.4255 20.6979 33.4472 20.7057C33.4855 20.72 33.5233 20.7348 33.5607 20.7495C33.5783 20.7569 33.5965 20.7633 33.6141 20.7707C33.6686 20.7933 33.7231 20.8174 33.7765 20.8425C33.7806 20.8445 33.7841 20.8465 33.7881 20.8479C33.8376 20.8716 33.8865 20.8962 33.9354 20.9218C33.9526 20.9311 33.9697 20.941 33.9874 20.9508C34.0217 20.9695 34.056 20.9882 34.0893 21.0079C34.1095 21.0197 34.1291 21.032 34.1488 21.0438C34.1791 21.0625 34.2098 21.0812 34.2396 21.1009C34.2598 21.1142 34.2799 21.1279 34.3001 21.1412C34.3289 21.1609 34.3571 21.1801 34.3849 21.2003C34.405 21.2146 34.4252 21.2293 34.4449 21.2441C34.4721 21.2647 34.4994 21.2854 34.5261 21.3066L34.5836 21.3523C34.6103 21.3745 34.6366 21.3966 34.6628 21.4193C34.681 21.435 34.6991 21.4508 34.7168 21.4665C34.7435 21.4906 34.7697 21.5152 34.7955 21.5398C34.8116 21.5551 34.8282 21.5703 34.8444 21.5861C34.8731 21.6146 34.9009 21.6437 34.9286 21.6727C34.9412 21.6855 34.9538 21.6978 34.966 21.7111C35.0053 21.7534 35.0441 21.7967 35.0815 21.841C35.0865 21.8469 35.091 21.8528 35.0956 21.8587C35.1279 21.8976 35.1596 21.9364 35.1909 21.9768C35.203 21.9925 35.2146 22.0088 35.2262 22.025C35.2494 22.0555 35.2721 22.086 35.2938 22.117C35.3069 22.1357 35.3195 22.1549 35.3327 22.1741C35.3523 22.2037 35.3715 22.2327 35.3907 22.2622C35.4033 22.2829 35.4159 22.3035 35.4285 22.3242C35.4462 22.3533 35.4638 22.3828 35.4805 22.4123C35.4926 22.434 35.5047 22.4556 35.5163 22.4773C35.5324 22.5068 35.5486 22.5373 35.5637 22.5673C35.5753 22.5895 35.5859 22.6111 35.597 22.6333C35.6121 22.6647 35.6262 22.6957 35.6404 22.7277C35.6504 22.7494 35.6605 22.771 35.6696 22.7932C35.6842 22.8266 35.6974 22.8606 35.7105 22.8946C35.719 22.9152 35.7271 22.9359 35.7352 22.9566C35.7493 22.9954 35.7629 23.0348 35.776 23.0742C35.7816 23.0909 35.7876 23.1071 35.7927 23.1234C35.8103 23.1795 35.827 23.2361 35.8421 23.2936C35.8451 23.3035 35.8472 23.3133 35.8497 23.3232C35.8618 23.3709 35.8734 23.4186 35.8835 23.4669C35.888 23.4875 35.8916 23.5082 35.8956 23.5289C35.9016 23.5594 35.9082 23.5894 35.9132 23.6204H38.5059C38.6346 23.6204 38.739 23.5185 38.739 23.393V20.8155H37.7554V19.5852H38.739V18.0046C38.739 17.2596 38.281 16.5997 37.5723 16.3232L35.2126 15.4025H26.2799V23.6204ZM26.2799 14.1722H34.3798L32.1069 8.97526C31.8532 8.39557 31.2721 8.02109 30.626 8.02109H26.2799V14.1722ZM10.3153 26.7698C11.7478 26.7698 12.913 25.633 12.913 24.2355C12.913 22.838 11.7478 21.7012 10.3153 21.7012C10.2704 21.7012 10.226 21.7022 10.1816 21.7047C8.98815 21.7637 8.00454 22.6131 7.77049 23.7252C7.76192 23.7665 7.75385 23.8084 7.74729 23.8502C7.73418 23.9338 7.7256 24.019 7.72106 24.1051C7.71854 24.1484 7.71753 24.1917 7.71753 24.2355C7.71753 25.633 8.88272 26.7698 10.3153 26.7698ZM1.26103 19.5852H2.24464V20.8155H1.26103V23.5549C1.26103 23.5909 1.2913 23.6204 1.32812 23.6204H6.50795C6.51299 23.5899 6.51955 23.5599 6.5256 23.5298C6.52963 23.5087 6.53316 23.4875 6.5377 23.4664C6.54779 23.4191 6.55889 23.3724 6.571 23.3261C6.57402 23.3153 6.57604 23.304 6.57907 23.2931C6.5942 23.2361 6.61084 23.18 6.6285 23.1239C6.63404 23.1066 6.6401 23.0894 6.64565 23.0727C6.65876 23.0338 6.67188 22.9949 6.686 22.957C6.69407 22.9354 6.70265 22.9147 6.71072 22.8936C6.72383 22.8601 6.73745 22.8266 6.75107 22.7937C6.76066 22.771 6.77074 22.7489 6.78083 22.7268C6.79496 22.6957 6.80908 22.6647 6.82421 22.6337C6.8348 22.6111 6.84641 22.589 6.8575 22.5668C6.87263 22.5368 6.88827 22.5073 6.90442 22.4773C6.91652 22.4556 6.92862 22.434 6.94073 22.4123C6.95788 22.3828 6.97503 22.3537 6.99269 22.3247C7.00529 22.3036 7.01791 22.2829 7.03102 22.2622C7.04969 22.2327 7.06886 22.2037 7.08853 22.1751C7.10114 22.1554 7.11425 22.1357 7.12737 22.117C7.14906 22.086 7.17175 22.056 7.19395 22.026C7.20605 22.0093 7.21816 21.9925 7.23077 21.9763C7.26103 21.9374 7.29181 21.8991 7.32358 21.8612C7.32913 21.8543 7.33418 21.8474 7.33972 21.841C7.37756 21.7967 7.41589 21.7534 7.45523 21.7111C7.46784 21.6978 7.48045 21.685 7.49306 21.6717C7.52081 21.6427 7.54855 21.6141 7.5768 21.5861C7.59294 21.5703 7.60958 21.5551 7.62623 21.5393C7.65195 21.5147 7.67768 21.4906 7.70441 21.4665C7.72207 21.4508 7.74073 21.435 7.75889 21.4188C7.78461 21.3966 7.81084 21.3745 7.83758 21.3528C7.85675 21.3371 7.87592 21.3213 7.89559 21.3061C7.92182 21.2854 7.94905 21.2647 7.97629 21.2441C7.99596 21.2293 8.01614 21.2146 8.03632 21.2003C8.06406 21.1801 8.09231 21.1609 8.12055 21.1417C8.14124 21.1279 8.16141 21.1142 8.18159 21.1009C8.21135 21.0812 8.24161 21.0625 8.27188 21.0443C8.29206 21.032 8.31173 21.0197 8.3319 21.0079C8.36519 20.9882 8.39899 20.9695 8.43329 20.9508C8.45095 20.941 8.4681 20.9311 8.48625 20.9218C8.53417 20.8962 8.5826 20.8721 8.63203 20.8489C8.63607 20.847 8.6401 20.8445 8.64464 20.8425C8.69811 20.8174 8.75258 20.7933 8.80706 20.7707C8.82471 20.7633 8.84287 20.7569 8.86053 20.7495C8.89836 20.7348 8.93569 20.72 8.97402 20.7057C8.99571 20.6979 9.0179 20.691 9.0401 20.6831C9.0744 20.6713 9.10921 20.6595 9.14451 20.6486C9.16822 20.6413 9.19243 20.6344 9.21614 20.6275C9.25044 20.6176 9.28474 20.6078 9.31904 20.5989C9.34376 20.5925 9.36847 20.5862 9.39369 20.5802C9.42799 20.5719 9.4623 20.5645 9.4971 20.5571C9.52232 20.5517 9.54754 20.5463 9.57327 20.5414C9.60857 20.535 9.64388 20.5286 9.6797 20.5232C9.70492 20.5187 9.72964 20.5148 9.75536 20.5114C9.79218 20.5059 9.82951 20.5015 9.86734 20.4971C9.89105 20.4946 9.91526 20.4912 9.93947 20.4892C9.98083 20.4853 10.0227 20.4823 10.0646 20.4799C10.0852 20.4784 10.1054 20.4764 10.1261 20.4759C10.1892 20.4725 10.2517 20.471 10.3153 20.471C10.3788 20.471 10.4414 20.4725 10.5044 20.4759C10.5251 20.4764 10.5453 20.4784 10.566 20.4799C10.6078 20.4823 10.6497 20.4853 10.691 20.4892C10.7153 20.4912 10.7395 20.4946 10.7632 20.4971C10.801 20.5015 10.8383 20.5059 10.8752 20.5114C10.9009 20.5148 10.9256 20.5187 10.9508 20.5232C10.9866 20.5286 11.0219 20.535 11.0573 20.5414C11.083 20.5463 11.1082 20.5517 11.1334 20.5571C11.1682 20.5645 11.2025 20.5719 11.2368 20.5802C11.262 20.5862 11.2868 20.5925 11.3115 20.5989C11.3458 20.6078 11.3801 20.6176 11.4144 20.6275C11.4381 20.6344 11.4623 20.6413 11.486 20.6486C11.5213 20.6595 11.5561 20.6713 11.5904 20.6831C11.6126 20.691 11.6348 20.6979 11.6565 20.7057C11.6948 20.72 11.7322 20.7348 11.77 20.7495C11.7876 20.7569 11.8058 20.7633 11.8235 20.7707C11.8779 20.7933 11.9324 20.8174 11.9859 20.8425C11.9904 20.8445 11.9945 20.8465 11.9985 20.8489C12.0479 20.8721 12.0963 20.8962 12.1443 20.9218C12.1624 20.9311 12.1796 20.941 12.1972 20.9508C12.231 20.9695 12.2653 20.9882 12.2986 21.0079C12.3188 21.0197 12.3385 21.032 12.3586 21.0443C12.3889 21.0625 12.4192 21.0812 12.4489 21.1009C12.4691 21.1142 12.4893 21.1279 12.51 21.1417C12.5382 21.1609 12.5665 21.1801 12.5942 21.2003C12.6144 21.2146 12.6346 21.2293 12.6542 21.2441C12.6815 21.2647 12.7087 21.2854 12.7349 21.3061C12.7546 21.3213 12.7738 21.3371 12.7929 21.3528C12.8197 21.3745 12.8459 21.3966 12.8716 21.4193C12.8898 21.435 12.9084 21.4508 12.9261 21.4665C12.9528 21.4906 12.9786 21.5152 13.0048 21.5398C13.0209 21.5551 13.0376 21.5703 13.0537 21.5861C13.082 21.6141 13.1102 21.6432 13.138 21.6722C13.1501 21.685 13.1632 21.6978 13.1753 21.7111C13.2146 21.7534 13.253 21.7967 13.2908 21.841C13.2958 21.8474 13.3009 21.8538 13.3059 21.8597C13.3377 21.8981 13.3695 21.9369 13.3997 21.9768C13.4124 21.9925 13.424 22.0088 13.4361 22.025C13.4588 22.0555 13.4815 22.086 13.5032 22.117C13.5163 22.1357 13.5289 22.1554 13.542 22.1746C13.5617 22.2037 13.5808 22.2327 13.5995 22.2622C13.6126 22.2829 13.6252 22.3035 13.6378 22.3242C13.6555 22.3533 13.6731 22.3828 13.6898 22.4123C13.7019 22.434 13.714 22.4556 13.7256 22.4773C13.7422 22.5068 13.7579 22.5373 13.7735 22.5673C13.7846 22.5895 13.7952 22.6111 13.8063 22.6333C13.8214 22.6647 13.8356 22.6962 13.8497 22.7277C13.8598 22.7494 13.8699 22.771 13.8789 22.7932C13.8936 22.8266 13.9067 22.8606 13.9203 22.8946C13.9284 22.9152 13.9364 22.9359 13.9445 22.9566C13.9591 22.9959 13.9723 23.0353 13.9854 23.0751C13.9909 23.0914 13.997 23.1071 14.002 23.1234C14.0197 23.1795 14.0363 23.2366 14.052 23.2936C14.054 23.3025 14.056 23.3118 14.058 23.3207C14.0706 23.3694 14.0822 23.4181 14.0928 23.4673C14.0974 23.487 14.1009 23.5072 14.1044 23.5274C14.1105 23.5584 14.117 23.5889 14.1226 23.6204H25.0189V5.33919C25.0189 4.99965 25.3014 4.72408 25.6494 4.72408H34.7657C34.7813 4.72408 34.8293 4.72408 34.859 4.66946C34.8888 4.61533 34.8625 4.57645 34.8535 4.56415L32.8807 1.67656C32.6895 1.39705 32.3702 1.23023 32.0257 1.23023H15.5612C15.4694 1.23023 15.3831 1.26517 15.318 1.32865L14.2749 2.34629C13.9718 2.64204 13.5687 2.80492 13.14 2.80492H2.28197C1.71904 2.80492 1.26103 3.25174 1.26103 3.80091V19.5852Z" fill="#101828"/>
<path d="M4.84372 6.2981H12.5562C13.4475 6.2981 14.1729 7.00572 14.1729 7.87525V11.4631C14.1729 12.3326 13.4475 13.0402 12.5562 13.0402H4.84321C3.95192 13.0402 3.22657 12.3326 3.22657 11.4631V7.87525C3.22707 7.00572 3.95242 6.2981 4.84372 6.2981ZM4.48811 11.4626C4.48811 11.6535 4.6475 11.8095 4.84372 11.8095H12.5562C12.7524 11.8095 12.9118 11.654 12.9118 11.4626V7.87476C12.9118 7.68382 12.7524 7.52783 12.5562 7.52783H4.84321C4.647 7.52783 4.4876 7.68333 4.4876 7.87476L4.48811 11.4626Z" fill="#101828"/>
</symbol>

<!--  -->

<symbol id="heart" width="25" height="24" viewBox="0 0 25 24" >
<g clip-path="url(#clip0_58_198)">
<path d="M21.3401 4.60999C20.8294 4.099 20.2229 3.69364 19.5555 3.41708C18.888 3.14052 18.1726 2.99817 17.4501 2.99817C16.7276 2.99817 16.0122 3.14052 15.3448 3.41708C14.6773 3.69364 14.0709 4.099 13.5601 4.60999L12.5001 5.66999L11.4401 4.60999C10.4084 3.5783 9.00915 2.9987 7.55012 2.9987C6.09108 2.9987 4.69181 3.5783 3.66012 4.60999C2.62843 5.64169 2.04883 7.04096 2.04883 8.49999C2.04883 9.95903 2.62843 11.3583 3.66012 12.39L4.72012 13.45L12.5001 21.23L20.2801 13.45L21.3401 12.39C21.8511 11.8792 22.2565 11.2728 22.533 10.6053C22.8096 9.93789 22.9519 9.22248 22.9519 8.49999C22.9519 7.77751 22.8096 7.0621 22.533 6.39464C22.2565 5.72718 21.8511 5.12075 21.3401 4.60999Z" stroke-width="2.3" stroke-linecap="round" stroke-linejoin="round"/>
</g>
<defs>
<clipPath>
<rect width="24" height="24" fill="white" transform="translate(0.5)"/>
</clipPath>
</defs>
</symbol>

<symbol id="cross" width="32" height="32" viewBox="0 0 32 32" fill="none">
<path d="M24 8L8 24" stroke="#101828" stroke-width="3" stroke-linecap="round" stroke-linejoin="round"/>
<path d="M8 8L24 24" stroke="#101828" stroke-width="3" stroke-linecap="round" stroke-linejoin="round"/>
</symbol>

<symbol id="hob" width="20" height="20" viewBox="0 0 20 20" fill="none">
<path d="M7.49984 4.16669H17.4998C17.7209 4.16669 17.9328 4.25448 18.0891 4.41076C18.2454 4.56705 18.3332 4.77901 18.3332 5.00002V15.8334C18.3332 16.0544 18.2454 16.2663 18.0891 16.4226C17.9328 16.5789 17.7209 16.6667 17.4998 16.6667H7.49984M7.49984 4.16669H2.49984C2.27882 4.16669 2.06686 4.25448 1.91058 4.41076C1.7543 4.56705 1.6665 4.77901 1.6665 5.00002V15.8334C1.6665 16.0544 1.7543 16.2663 1.91058 16.4226C2.06686 16.5789 2.27882 16.6667 2.49984 16.6667H7.49984M7.49984 4.16669V16.6667" stroke="#101828" stroke-width="1.5"/>
<path d="M4.58301 7.08335V8.75002M15.4163 6.66669L10.4163 13.75" stroke="#101828" stroke-width="1.5" stroke-linecap="round" stroke-linejoin="round"/>
<path d="M5.41667 11.25C5.41667 10.7898 5.04357 10.4167 4.58333 10.4167C4.1231 10.4167 3.75 10.7898 3.75 11.25C3.75 11.7103 4.1231 12.0834 4.58333 12.0834C5.04357 12.0834 5.41667 11.7103 5.41667 11.25Z" fill="#101828"/>
<path d="M5.41667 13.75C5.41667 13.2898 5.04357 12.9167 4.58333 12.9167C4.1231 12.9167 3.75 13.2898 3.75 13.75C3.75 14.2103 4.1231 14.5834 4.58333 14.5834C5.04357 14.5834 5.41667 14.2103 5.41667 13.75Z" fill="#101828"/>
</symbol>

<symbol id="radio" width="20" height="20" viewBox="0 0 20 20" fill="none">
<path d="M1.6665 11.6667C1.6665 8.52417 1.6665 6.9525 2.64317 5.97667C3.619 5 5.19067 5 8.33317 5H11.6665C14.809 5 16.3807 5 17.3565 5.97667C18.3332 6.9525 18.3332 8.52417 18.3332 11.6667C18.3332 14.8092 18.3332 16.3808 17.3565 17.3567C16.3807 18.3333 14.809 18.3333 11.6665 18.3333H8.33317C5.19067 18.3333 3.619 18.3333 2.64317 17.3567C1.6665 16.3808 1.6665 14.8092 1.6665 11.6667Z" stroke="#101828" stroke-width="1.3"/>
<path d="M4.1665 9.16667C4.1665 8.72464 4.3421 8.30072 4.65466 7.98816C4.96722 7.6756 5.39114 7.5 5.83317 7.5H14.1665C14.6085 7.5 15.0325 7.6756 15.345 7.98816C15.6576 8.30072 15.8332 8.72464 15.8332 9.16667C15.8332 9.60869 15.6576 10.0326 15.345 10.3452C15.0325 10.6577 14.6085 10.8333 14.1665 10.8333H5.83317C5.39114 10.8333 4.96722 10.6577 4.65466 10.3452C4.3421 10.0326 4.1665 9.60869 4.1665 9.16667ZM7.49984 14.1667C7.49984 14.4982 7.36814 14.8161 7.13372 15.0505C6.8993 15.285 6.58136 15.4167 6.24984 15.4167C5.91832 15.4167 5.60037 15.285 5.36595 15.0505C5.13153 14.8161 4.99984 14.4982 4.99984 14.1667C4.99984 13.8351 5.13153 13.5172 5.36595 13.2828C5.60037 13.0484 5.91832 12.9167 6.24984 12.9167C6.58136 12.9167 6.8993 13.0484 7.13372 13.2828C7.36814 13.5172 7.49984 13.8351 7.49984 14.1667Z" stroke="#101828" stroke-width="1.3"/>
<path d="M12.4998 9.58332V10.8333M10.8332 14.1667H14.9998M5.4165 4.99999L12.4998 1.66666" stroke="#101828" stroke-width="1.3" stroke-linecap="round"/>
</symbol>

<symbol id="cd" width="20" height="20" viewBox="0 0 20 20" fill="none">
<path d="M10 17.5C14.1421 17.5 17.5 14.1421 17.5 10C17.5 5.85786 14.1421 2.5 10 2.5C5.85786 2.5 2.5 5.85786 2.5 10C2.5 14.1421 5.85786 17.5 10 17.5Z" stroke="#101828" stroke-width="1.5"/>
<path d="M5.4165 9.99999C5.4165 7.46874 7.46859 5.41666 9.99984 5.41666" stroke="#101828" stroke-width="1.5" stroke-linecap="round"/>
<path d="M9.99984 12.0833C11.1504 12.0833 12.0832 11.1506 12.0832 9.99999C12.0832 8.8494 11.1504 7.91666 9.99984 7.91666C8.84924 7.91666 7.9165 8.8494 7.9165 9.99999C7.9165 11.1506 8.84924 12.0833 9.99984 12.0833Z" stroke="#101828" stroke-width="1.5"/>
</symbol>

<symbol id="conditioner" width="20" height="20" viewBox="0 0 20 20" fill="none">
<g clip-path="url(#clip0_45_422)">
<path d="M17.8572 0.714294H2.14293C1.76405 0.714294 1.40068 0.864804 1.13277 1.13271C0.864865 1.40062 0.714355 1.76399 0.714355 2.14287V9.28572C0.714355 9.6646 0.864865 10.028 1.13277 10.2959C1.40068 10.5638 1.76405 10.7143 2.14293 10.7143H17.8572C18.2361 10.7143 18.5995 10.5638 18.8674 10.2959C19.1353 10.028 19.2858 9.6646 19.2858 9.28572V2.14287C19.2858 1.76399 19.1353 1.40062 18.8674 1.13271C18.5995 0.864804 18.2361 0.714294 17.8572 0.714294Z" stroke="#101828" stroke-width="1.5" stroke-linecap="round" stroke-linejoin="round"/>
<path d="M15.7141 10.7143V7.85716C15.7141 7.47828 15.5636 7.11492 15.2957 6.84701C15.0278 6.5791 14.6645 6.42859 14.2856 6.42859H5.71415C5.33527 6.42859 4.9719 6.5791 4.70399 6.84701C4.43608 7.11492 4.28557 7.47828 4.28557 7.85716V10.7143M3.57129 17.8572H3.71415C4.24458 17.8572 4.75329 17.6464 5.12836 17.2714C5.50343 16.8963 5.71415 16.3876 5.71415 15.8572V14.2857M16.4284 17.8572H16.2856C15.7551 17.8572 15.2464 17.6464 14.8714 17.2714C14.4963 16.8963 14.2856 16.3876 14.2856 15.8572V14.2857M9.99986 19.2857V14.2857" stroke="#101828" stroke-width="1.5" stroke-linecap="round" stroke-linejoin="round"/>
</g>
<defs>
<clipPath>
<rect width="20" height="20" fill="white"/>
</clipPath>
</defs>
</symbol>

<symbol id="calendar" width="20" height="20" viewBox="0 0 20 20" fill="none">
<path d="M15.8333 3.33331H4.16667C3.24619 3.33331 2.5 4.07951 2.5 4.99998V16.6666C2.5 17.5871 3.24619 18.3333 4.16667 18.3333H15.8333C16.7538 18.3333 17.5 17.5871 17.5 16.6666V4.99998C17.5 4.07951 16.7538 3.33331 15.8333 3.33331Z" stroke="#101828" stroke-width="1.5" stroke-linecap="round" stroke-linejoin="round"/>
<path d="M13.3335 1.66669V5.00002" stroke="#101828" stroke-width="1.5" stroke-linecap="round" stroke-linejoin="round"/>
<path d="M6.6665 1.66669V5.00002" stroke="#101828" stroke-width="1.5" stroke-linecap="round" stroke-linejoin="round"/>
<path d="M2.5 8.33331H17.5" stroke="#101828" stroke-width="1.5" stroke-linecap="round" stroke-linejoin="round"/>
</symbol>

<symbol id="grey-star" width="16" height="16" viewBox="0 0 16 16" fill="none">
<g clip-path="url(#clip0_58_177)">
<path d="M6.20021 4.69703L8 1.28579L9.79979 4.69703C9.95896 4.9987 10.2491 5.20947 10.5851 5.26762L14.3856 5.92519L11.6975 8.69103C11.4598 8.93563 11.3489 9.27666 11.3975 9.61427L11.9465 13.4319L8.48537 11.7301C8.17929 11.5795 7.82071 11.5796 7.51463 11.7301L4.05348 13.4319L4.6025 9.61427C4.65105 9.27666 4.54024 8.93563 4.30252 8.69103L1.6144 5.92519L5.41486 5.26762C5.75095 5.20947 6.04104 4.9987 6.20021 4.69703ZM14.5177 5.78928L14.5175 5.78947L14.5177 5.78928ZM3.8834 13.5155C3.88344 13.5155 3.88349 13.5155 3.88353 13.5155L3.8834 13.5155Z" fill="#F2F4F7" stroke="#F2F4F7" stroke-width="1.2"/>
</g>
<defs>
<clipPath>
<rect width="16" height="16" fill="white"/>
</clipPath>
</defs>
</symbol>

<symbol id="yellow-star" width="16" height="16" viewBox="0 0 16 16" fill="none">
<g clip-path="url(#clip0_58_144)">
<path d="M6.20021 4.69703L8 1.28579L9.79979 4.69703C9.95896 4.9987 10.2491 5.20947 10.5851 5.26762L14.3856 5.92519L11.6975 8.69103C11.4598 8.93563 11.3489 9.27666 11.3975 9.61427L11.9465 13.4319L8.48537 11.7301C8.17929 11.5795 7.82071 11.5795 7.51463 11.7301L4.05348 13.4319L4.6025 9.61427C4.65105 9.27666 4.54024 8.93563 4.30252 8.69103L1.6144 5.92519L5.41486 5.26762C5.75095 5.20947 6.04104 4.9987 6.20021 4.69703Z" fill="#FFC531" stroke="#FFC531" stroke-width="1.2"/>
</g>
<defs>
<clipPath>
<rect width="16" height="16" fill="white"/>
</clipPath>
</defs>
</symbol>

</defs>
</svg>
